<svg xmlns="http://www.w3.org/2000/svg" xmlns:xlink="http://www.w3.org/1999/xlink" width="378.359" height="758" viewBox="0 0 378.359 758">
  <defs>
    <clipPath id="clip-path">
      <rect id="Rechteck_1" data-name="Rechteck 1" width="372" height="758" rx="55" transform="translate(0.316)" fill="none" stroke="#707070" stroke-width="19"/>
    </clipPath>
    <linearGradient id="linear-gradient" x1="0.5" x2="0.5" y2="1" gradientUnits="objectBoundingBox">
      <stop offset="0" stop-color="#8ff1f0"/>
      <stop offset="0.189" stop-color="#2f4aae"/>
      <stop offset="1" stop-color="#17219d"/>
    </linearGradient>
    <radialGradient id="radial-gradient" cx="0.5" cy="0.5" r="0.5" gradientUnits="objectBoundingBox">
      <stop offset="0" stop-color="#121a4b"/>
      <stop offset="0.645" stop-color="#10195a"/>
      <stop offset="1" stop-color="#68d7ea"/>
    </radialGradient>
    <filter id="Ellipse_6" x="-149.64" y="56" width="669" height="665" filterUnits="userSpaceOnUse">
      <feOffset dx="-5" dy="9" input="SourceAlpha"/>
      <feGaussianBlur stdDeviation="3" result="blur"/>
      <feFlood flood-opacity="0.161"/>
      <feComposite operator="in" in2="blur"/>
      <feComposite in="SourceGraphic"/>
    </filter>
    <radialGradient id="radial-gradient-2" cx="0.5" cy="0.5" r="0.5" gradientUnits="objectBoundingBox">
      <stop offset="0" stop-color="#a5e6a6"/>
      <stop offset="0" stop-color="#a4e4a6"/>
      <stop offset="0.387" stop-color="#083b6e"/>
      <stop offset="0.576" stop-color="#07396e"/>
      <stop offset="1" stop-color="#a4e4a6"/>
    </radialGradient>
    <filter id="Ellipse_4" x="26.359" y="157" width="465" height="462" filterUnits="userSpaceOnUse">
      <feOffset dx="-5" dy="9" input="SourceAlpha"/>
      <feGaussianBlur stdDeviation="3" result="blur-2"/>
      <feFlood flood-opacity="0.161"/>
      <feComposite operator="in" in2="blur-2"/>
      <feComposite in="SourceGraphic"/>
    </filter>
    <radialGradient id="radial-gradient-3" cx="0.5" cy="0.5" r="0.5" gradientUnits="objectBoundingBox">
      <stop offset="0" stop-color="#121a4b"/>
      <stop offset="0.645" stop-color="#10195a" stop-opacity="0.569"/>
      <stop offset="1" stop-color="#172352" stop-opacity="0"/>
    </radialGradient>
    <filter id="Ellipse_5" x="108.359" y="171" width="465" height="462" filterUnits="userSpaceOnUse">
      <feOffset dx="-5" dy="9" input="SourceAlpha"/>
      <feGaussianBlur stdDeviation="3" result="blur-3"/>
      <feFlood flood-opacity="0.161"/>
      <feComposite operator="in" in2="blur-3"/>
      <feComposite in="SourceGraphic"/>
    </filter>
    <linearGradient id="linear-gradient-2" x1="0.85" y1="0.255" x2="0.165" y2="0.781" gradientUnits="objectBoundingBox">
      <stop offset="0" stop-color="#a5e6a6"/>
      <stop offset="1" stop-color="#07396e"/>
    </linearGradient>
    <filter id="Ellipse_2" x="57.359" y="261" width="255" height="254" filterUnits="userSpaceOnUse">
      <feOffset dx="-5" dy="9" input="SourceAlpha"/>
      <feGaussianBlur stdDeviation="3" result="blur-4"/>
      <feFlood flood-opacity="0.161"/>
      <feComposite operator="in" in2="blur-4"/>
      <feComposite in="SourceGraphic"/>
    </filter>
  </defs>
  <g id="SSA_FRONT" data-name="SSA FRONT" transform="translate(-186 -3)">
    <g id="Gruppe_maskieren_1" data-name="Gruppe maskieren 1" transform="translate(189.043 3)" clip-path="url(#clip-path)">
      <rect id="Rechteck_5" data-name="Rechteck 5" width="372" height="761" transform="translate(0.316)" fill="url(#linear-gradient)"/>
      <path id="Rechteck_2" data-name="Rechteck 2" d="M0,0H205a0,0,0,0,1,0,0V11a21,21,0,0,1-21,21H21A21,21,0,0,1,0,11V0A0,0,0,0,1,0,0Z" transform="translate(83.316 17)"/>
      <g id="Ellipse_1" data-name="Ellipse 1" transform="translate(221.316 24)" fill="#3a3a3e" stroke="#212121" stroke-width="1">
        <circle cx="6.5" cy="6.5" r="6.5" stroke="none"/>
        <circle cx="6.5" cy="6.5" r="6" fill="none"/>
      </g>
      <g id="Rechteck_3" data-name="Rechteck 3" transform="translate(163.316 27)" fill="#3a3a3e" stroke="#212121" stroke-width="1">
        <rect width="46" height="7" rx="3.5" stroke="none"/>
        <rect x="0.5" y="0.5" width="45" height="6" rx="3" fill="none"/>
      </g>
      <path id="Pfad_3" data-name="Pfad 3" d="M4.057,0H0V4.032A4.045,4.045,0,0,1,4.057,0Z" transform="translate(288.297 18.95)"/>
      <path id="Pfad_4" data-name="Pfad 4" d="M0,0A4.045,4.045,0,0,1,4.057,4.032V0Z" transform="translate(79.297 18.95)"/>
      <g transform="matrix(1, 0, 0, 1, -3.04, 0)" filter="url(#Ellipse_6)">
        <g id="Ellipse_6-2" data-name="Ellipse 6" transform="translate(-135.64 56)" stroke="rgba(222,255,236,0.5)" stroke-width="1" fill="url(#radial-gradient)">
          <ellipse cx="325.5" cy="323.5" rx="325.5" ry="323.5" stroke="none"/>
          <ellipse cx="325.5" cy="323.5" rx="325" ry="323" fill="none"/>
        </g>
      </g>
      <g transform="matrix(1, 0, 0, 1, -3.04, 0)" filter="url(#Ellipse_4)">
        <g id="Ellipse_4-2" data-name="Ellipse 4" transform="translate(40.36 157)" stroke="rgba(222,255,236,0.5)" stroke-width="1" fill="url(#radial-gradient-2)">
          <ellipse cx="223.5" cy="222" rx="223.5" ry="222" stroke="none"/>
          <ellipse cx="223.5" cy="222" rx="223" ry="221.5" fill="none"/>
        </g>
      </g>
      <g transform="matrix(1, 0, 0, 1, -3.04, 0)" filter="url(#Ellipse_5)">
        <ellipse id="Ellipse_5-2" data-name="Ellipse 5" cx="223.5" cy="222" rx="223.5" ry="222" transform="translate(122.36 171)" fill="url(#radial-gradient-3)"/>
      </g>
      <g transform="matrix(1, 0, 0, 1, -3.04, 0)" filter="url(#Ellipse_2)">
        <g id="Ellipse_2-2" data-name="Ellipse 2" transform="translate(71.36 261)" stroke="rgba(222,255,236,0.5)" stroke-width="1" fill="url(#linear-gradient-2)">
          <ellipse cx="118.5" cy="118" rx="118.5" ry="118" stroke="none"/>
          <ellipse cx="118.5" cy="118" rx="118" ry="117.5" fill="none"/>
        </g>
      </g>
    </g>
    <g id="Rechteck_4" data-name="Rechteck 4" transform="translate(189.359 3)" fill="none" stroke="#000" stroke-width="19">
      <rect width="372" height="758" rx="55" stroke="none"/>
      <rect x="9.5" y="9.5" width="353" height="739" rx="45.5" fill="none"/>
    </g>
    <g id="Rahmen" transform="translate(189.36 3)" fill="none" stroke="#3b5765" stroke-width="5">
      <rect width="372" height="758" rx="53" stroke="none"/>
      <rect x="2.5" y="2.5" width="367" height="753" rx="50.5" fill="none"/>
    </g>
    <path id="Pfad_5" data-name="Pfad 5" d="M0,0,3.043,1.512V99.286L0,100.8Z" transform="translate(561.316 204.596)" fill="#273e4c"/>
    <path id="Pfad_6" data-name="Pfad 6" d="M3.043,0,0,.907V59.572l3.043.907Z" transform="translate(186 183.428)" fill="#273e4c"/>
    <path id="Pfad_7" data-name="Pfad 7" d="M3.043,0,0,.907V59.572l3.043.907Z" transform="translate(186 264.066)" fill="#273e4c"/>
    <path id="Pfad_8" data-name="Pfad 8" d="M3.043,0,0,.438V28.793l3.043.438Z" transform="translate(186 122.949)" fill="#273e4c"/>
  </g>
</svg>
