<svg xmlns="http://www.w3.org/2000/svg" xmlns:xlink="http://www.w3.org/1999/xlink" width="444.154" height="844" viewBox="0 0 444.154 844">
  <defs>
    <clipPath id="clip-path">
      <rect id="Rechteck_1" data-name="Rechteck 1" width="434.938" height="844" rx="55" transform="translate(0)" fill="none" stroke="#707070" stroke-width="19"/>
    </clipPath>
    <linearGradient id="linear-gradient" x1="0.5" x2="0.5" y2="1" gradientUnits="objectBoundingBox">
      <stop offset="0" stop-color="#f39b85"/>
      <stop offset="0.093" stop-color="#e56d5f"/>
      <stop offset="1" stop-color="#740517"/>
    </linearGradient>
    <radialGradient id="radial-gradient" cx="0.5" cy="0.5" r="0.5" gradientUnits="objectBoundingBox">
      <stop offset="0" stop-color="#d43633"/>
      <stop offset="0.645" stop-color="#d43633"/>
      <stop offset="1" stop-color="#fcc2a7"/>
    </radialGradient>
    <filter id="Ellipse_6" x="-172.362" y="62.633" width="775.702" height="734.681" filterUnits="userSpaceOnUse">
      <feOffset dx="-5" dy="9" input="SourceAlpha"/>
      <feGaussianBlur stdDeviation="3" result="blur"/>
      <feFlood flood-opacity="0.161"/>
      <feComposite operator="in" in2="blur"/>
      <feComposite in="SourceGraphic"/>
    </filter>
    <radialGradient id="radial-gradient-2" cx="0.5" cy="0.5" r="0.5" gradientUnits="objectBoundingBox">
      <stop offset="0" stop-color="#f773af"/>
      <stop offset="0" stop-color="#f992c7"/>
      <stop offset="0.28" stop-color="#f9a963"/>
      <stop offset="0.368" stop-color="#f9a963"/>
      <stop offset="0.514" stop-color="#bc1711"/>
      <stop offset="0.645" stop-color="#bc1711"/>
      <stop offset="1" stop-color="#f992c7"/>
    </radialGradient>
    <filter id="Ellipse_4" x="32.938" y="174.55" width="536.539" height="509.82" filterUnits="userSpaceOnUse">
      <feOffset dx="-5" dy="9" input="SourceAlpha"/>
      <feGaussianBlur stdDeviation="3" result="blur-2"/>
      <feFlood flood-opacity="0.161"/>
      <feComposite operator="in" in2="blur-2"/>
      <feComposite in="SourceGraphic"/>
    </filter>
    <radialGradient id="radial-gradient-3" cx="0.5" cy="0.5" r="0.5" gradientUnits="objectBoundingBox">
      <stop offset="0" stop-color="#a30303"/>
      <stop offset="0.751" stop-color="#9c0001" stop-opacity="0.569"/>
      <stop offset="1" stop-color="#bc1711" stop-opacity="0"/>
    </radialGradient>
    <filter id="Ellipse_5" x="128.18" y="189.951" width="537.597" height="509.82" filterUnits="userSpaceOnUse">
      <feOffset dx="-5" dy="9" input="SourceAlpha"/>
      <feGaussianBlur stdDeviation="3" result="blur-3"/>
      <feFlood flood-opacity="0.161"/>
      <feComposite operator="in" in2="blur-3"/>
      <feComposite in="SourceGraphic"/>
    </filter>
    <linearGradient id="linear-gradient-2" x1="0.85" y1="0.255" x2="0.165" y2="0.781" gradientUnits="objectBoundingBox">
      <stop offset="0" stop-color="#f685b2"/>
      <stop offset="1" stop-color="#bc1711"/>
    </linearGradient>
    <filter id="Ellipse_2" x="68.918" y="289.547" width="293.143" height="279.825" filterUnits="userSpaceOnUse">
      <feOffset dx="-5" dy="9" input="SourceAlpha"/>
      <feGaussianBlur stdDeviation="3" result="blur-4"/>
      <feFlood flood-opacity="0.161"/>
      <feComposite operator="in" in2="blur-4"/>
      <feComposite in="SourceGraphic"/>
    </filter>
    <radialGradient id="radial-gradient-4" cx="0.4" cy="0.595" r="0.654" gradientTransform="matrix(0.449, -0.894, 0.842, 0.423, -0.281, 0.701)" gradientUnits="objectBoundingBox">
      <stop offset="0" stop-color="#b61711"/>
      <stop offset="0.715" stop-color="#c63239" stop-opacity="0.4"/>
      <stop offset="1" stop-color="#f685b2" stop-opacity="0"/>
    </radialGradient>
    <filter id="Ellipse_7" x="68.918" y="289.547" width="293.143" height="279.825" filterUnits="userSpaceOnUse">
      <feOffset dx="-5" dy="9" input="SourceAlpha"/>
      <feGaussianBlur stdDeviation="3" result="blur-5"/>
      <feFlood flood-opacity="0.161"/>
      <feComposite operator="in" in2="blur-5"/>
      <feComposite in="SourceGraphic"/>
    </filter>
  </defs>
  <g id="SSA_FRONT" data-name="SSA+ FRONT" transform="translate(-185.646 -3)">
    <g id="Gruppe_maskieren_1" data-name="Gruppe maskieren 1" transform="translate(189.195 3)" clip-path="url(#clip-path)">
      <rect id="Rechteck_5" data-name="Rechteck 5" width="432.822" height="844" transform="translate(0)" fill="url(#linear-gradient)"/>
      <g transform="matrix(1, 0, 0, 1, -3.55, 0)" filter="url(#Ellipse_6)">
        <g id="Ellipse_6-2" data-name="Ellipse 6" transform="translate(-158.36 62.63)" stroke="rgba(255,222,222,0.5)" stroke-width="1" fill="url(#radial-gradient)">
          <ellipse cx="378.851" cy="358.341" rx="378.851" ry="358.341" stroke="none"/>
          <ellipse cx="378.851" cy="358.341" rx="378.351" ry="357.841" fill="none"/>
        </g>
      </g>
      <g transform="matrix(1, 0, 0, 1, -3.55, 0)" filter="url(#Ellipse_4)">
        <g id="Ellipse_4-2" data-name="Ellipse 4" transform="translate(46.94 174.55)" stroke="rgba(255,222,222,0.5)" stroke-width="1" fill="url(#radial-gradient-2)">
          <ellipse cx="259.27" cy="245.91" rx="259.27" ry="245.91" stroke="none"/>
          <ellipse cx="259.27" cy="245.91" rx="258.77" ry="245.41" fill="none"/>
        </g>
      </g>
      <g transform="matrix(1, 0, 0, 1, -3.55, 0)" filter="url(#Ellipse_5)">
        <ellipse id="Ellipse_5-2" data-name="Ellipse 5" cx="259.799" cy="245.91" rx="259.799" ry="245.91" transform="translate(142.18 189.95)" fill="url(#radial-gradient-3)"/>
      </g>
      <g transform="matrix(1, 0, 0, 1, -3.55, 0)" filter="url(#Ellipse_2)">
        <g id="Ellipse_2-2" data-name="Ellipse 2" transform="translate(82.92 289.55)" stroke="rgba(255,222,222,0.5)" stroke-width="1" fill="url(#linear-gradient-2)">
          <ellipse cx="137.572" cy="130.912" rx="137.572" ry="130.912" stroke="none"/>
          <ellipse cx="137.572" cy="130.912" rx="137.072" ry="130.412" fill="none"/>
        </g>
      </g>
      <path id="Rechteck_2" data-name="Rechteck 2" d="M0,0H239.163a0,0,0,0,1,0,0V14.937a21,21,0,0,1-21,21H21a21,21,0,0,1-21-21V0A0,0,0,0,1,0,0Z" transform="translate(97.358 18.482)"/>
      <path id="Pfad_4" data-name="Pfad 4" d="M0,0A4.615,4.615,0,0,1,4.733,4.488V0Z" transform="translate(92.668 19.262)"/>
      <path id="Pfad_3" data-name="Pfad 3" d="M4.733,0H0V4.488A4.615,4.615,0,0,1,4.733,0Z" transform="translate(336.414 19.262)"/>
      <g id="Rechteck_3" data-name="Rechteck 3" transform="translate(190.484 30.803)" fill="#3a3a3e" stroke="#212121" stroke-width="1">
        <rect width="53.97" height="7.187" rx="3.594" stroke="none"/>
        <rect x="0.5" y="0.5" width="52.97" height="6.187" rx="3.094" fill="none"/>
      </g>
      <g id="Ellipse_1" data-name="Ellipse 1" transform="translate(258.211 26.696)" fill="#3a3a3e" stroke="#212121" stroke-width="1">
        <ellipse cx="7.937" cy="7.187" rx="7.937" ry="7.187" stroke="none"/>
        <ellipse cx="7.937" cy="7.187" rx="7.437" ry="6.687" fill="none"/>
      </g>
      <g transform="matrix(1, 0, 0, 1, -3.55, 0)" filter="url(#Ellipse_7)">
        <g id="Ellipse_7-2" data-name="Ellipse 7" transform="translate(82.92 289.55)" stroke="rgba(255,222,222,0.5)" stroke-width="1" fill="url(#radial-gradient-4)">
          <ellipse cx="137.572" cy="130.912" rx="137.572" ry="130.912" stroke="none"/>
          <ellipse cx="137.572" cy="130.912" rx="137.072" ry="130.412" fill="none"/>
        </g>
      </g>
    </g>
    <g id="Rechteck_4" data-name="Rechteck 4" transform="translate(189.195 3)" fill="none" stroke="#000" stroke-width="19">
      <rect width="437.055" height="844" rx="55" stroke="none"/>
      <rect x="9.5" y="9.5" width="418.055" height="825" rx="45.5" fill="none"/>
    </g>
    <g id="Rahmen" transform="translate(189.196 3)" fill="none" stroke="#ae140f" stroke-width="5">
      <rect width="437.05" height="844" rx="53" stroke="none"/>
      <rect x="2.5" y="2.5" width="432.05" height="839" rx="50.5" fill="none"/>
    </g>
    <path id="Pfad_5" data-name="Pfad 5" d="M0,0,3.55,1.4V91.741L0,93.138Z" transform="translate(626.25 192.468)" fill="#e53b3c"/>
    <path id="Pfad_6" data-name="Pfad 6" d="M3.55,0,0,.893V58.659l3.55.893Z" transform="translate(185.646 171.988)" fill="#e53b3c"/>
    <path id="Pfad_8" data-name="Pfad 8" d="M3.55,0,0,.4V26.3l3.55.4Z" transform="translate(186.021 116.996)" fill="#e53b3c"/>
    <path id="Pfad_9" data-name="Pfad 9" d="M3.55,0,0,.893V58.659l3.55.893Z" transform="translate(185.646 247.969)" fill="#e53b3c"/>
  </g>
</svg>
