<svg xmlns="http://www.w3.org/2000/svg" xmlns:xlink="http://www.w3.org/1999/xlink" width="471.519" height="896" viewBox="0 0 471.519 896">
  <defs>
    <clipPath id="clip-path">
      <rect id="Rechteck_1" data-name="Rechteck 1" width="461.735" height="896" rx="55" transform="translate(0)" fill="none" stroke="#707070" stroke-width="19"/>
    </clipPath>
  </defs>
  <g id="SSB_FRONT" data-name="SSB+ FRONT" transform="translate(-185.646 -3)">
    <g id="Gruppe_maskieren_1" data-name="Gruppe maskieren 1" transform="translate(189.414 3)" clip-path="url(#clip-path)">
      <rect id="Rechteck_12" data-name="Rechteck 12" width="462" height="896" transform="translate(-0.249)"/>
      <rect id="Rechteck_13" data-name="Rechteck 13" width="232" height="896" transform="translate(-0.249)" fill="#bbb2e7"/>
      <path id="Rechteck_2" data-name="Rechteck 2" d="M0,0H253.9a0,0,0,0,1,0,0V17.151a21,21,0,0,1-21,21H21a21,21,0,0,1-21-21V0A0,0,0,0,1,0,0Z" transform="translate(103.357 18.62)"/>
      <path id="Pfad_4" data-name="Pfad 4" d="M0,0A4.9,4.9,0,0,1,5.025,4.764V0Z" transform="translate(98.377 18.449)"/>
      <path id="Pfad_3" data-name="Pfad 3" d="M5.025,0H0V4.764A4.9,4.9,0,0,1,5.025,0Z" transform="translate(357.141 18.449)"/>
      <g id="Rechteck_3" data-name="Rechteck 3" transform="translate(202.22 31.701)" fill="#3a3a3e" stroke="#212121" stroke-width="1">
        <rect width="57.296" height="7.63" rx="3.815" stroke="none"/>
        <rect x="0.5" y="0.5" width="56.296" height="6.63" rx="3.315" fill="none"/>
      </g>
      <g id="Ellipse_1" data-name="Ellipse 1" transform="translate(274.12 28.341)" fill="#3a3a3e" stroke="#212121" stroke-width="1">
        <ellipse cx="8.426" cy="7.63" rx="8.426" ry="7.63" stroke="none"/>
        <ellipse cx="8.426" cy="7.63" rx="7.926" ry="7.13" fill="none"/>
      </g>
      <rect id="Rechteck_6" data-name="Rechteck 6" width="496.552" height="38.621" transform="translate(-9.04 461.748) rotate(-20)" fill="#5fb947"/>
      <rect id="Rechteck_7" data-name="Rechteck 7" width="496.552" height="38.621" transform="translate(-9.04 502.576) rotate(-20)" fill="#f6b229"/>
      <rect id="Rechteck_8" data-name="Rechteck 8" width="496.552" height="38.621" transform="translate(-9.04 543.404) rotate(-20)" fill="#f7811d"/>
      <rect id="Rechteck_9" data-name="Rechteck 9" width="496.552" height="38.621" transform="translate(-9.04 584.231) rotate(-20)" fill="#e03a3e"/>
      <rect id="Rechteck_10" data-name="Rechteck 10" width="496.552" height="38.621" transform="translate(-9.04 625.059) rotate(-20)" fill="#8f3990"/>
      <rect id="Rechteck_11" data-name="Rechteck 11" width="496.552" height="38.621" transform="translate(-9.04 665.886) rotate(-20)" fill="#0188c0"/>
    </g>
    <g id="Rechteck_4" data-name="Rechteck 4" transform="translate(189.414 3)" fill="none" stroke="#000" stroke-width="19">
      <rect width="463.982" height="896" rx="55" stroke="none"/>
      <rect x="9.5" y="9.5" width="444.982" height="877" rx="45.5" fill="none"/>
    </g>
    <g id="Rechteck_26" data-name="Rechteck 26" transform="translate(189.415 3)" fill="none" stroke="#bbb2e7" stroke-width="5">
      <rect width="463.98" height="896" rx="53" stroke="none"/>
      <rect x="2.5" y="2.5" width="458.98" height="891" rx="50.5" fill="none"/>
    </g>
    <path id="Pfad_5" data-name="Pfad 5" d="M0,0,3.768,1.483v95.91L0,98.877Z" transform="translate(653.396 204.141)" fill="#d1c9fa"/>
    <path id="Pfad_6" data-name="Pfad 6" d="M3.768,0,0,.948V62.273l3.768.948Z" transform="translate(185.646 182.4)" fill="#d1c9fa"/>
    <path id="Pfad_8" data-name="Pfad 8" d="M3.768,0,0,.425v27.49l3.768.425Z" transform="translate(186.044 124.02)" fill="#d1c9fa"/>
    <path id="Pfad_9" data-name="Pfad 9" d="M3.768,0,0,.948V62.273l3.768.948Z" transform="translate(185.646 263.062)" fill="#d1c9fa"/>
  </g>
</svg>
