<svg xmlns="http://www.w3.org/2000/svg" xmlns:xlink="http://www.w3.org/1999/xlink" width="421" height="853" viewBox="0 0 421 853">
  <defs>
    <linearGradient id="linear-gradient" x1="1" x2="0" y2="1" gradientUnits="objectBoundingBox">
      <stop offset="0" stop-color="#ceefe1"/>
      <stop offset="1" stop-color="#a4d3c0"/>
    </linearGradient>
    <filter id="Rahmen" x="0" y="0" width="421" height="853" filterUnits="userSpaceOnUse">
      <feOffset input="SourceAlpha"/>
      <feGaussianBlur stdDeviation="1.5" result="blur"/>
      <feFlood flood-opacity="0.522"/>
      <feComposite operator="in" in2="blur"/>
    </filter>
    <filter id="Rahmen-2" x="0" y="0" width="421" height="853" filterUnits="userSpaceOnUse">
      <feOffset dx="10" input="SourceAlpha"/>
      <feGaussianBlur stdDeviation="3" result="blur-2"/>
      <feFlood flood-color="#fff" result="color"/>
      <feComposite operator="out" in="SourceGraphic" in2="blur-2"/>
      <feComposite operator="in" in="color"/>
      <feComposite operator="in" in2="SourceGraphic"/>
    </filter>
    <filter id="wholeCamera" x="14.5" y="24.5" width="201" height="209" filterUnits="userSpaceOnUse">
      <feOffset dx="-4" dy="3" input="SourceAlpha"/>
      <feGaussianBlur stdDeviation="3" result="blur-3"/>
      <feFlood flood-opacity="0.161"/>
      <feComposite operator="in" in2="blur-3"/>
      <feComposite in="SourceGraphic"/>
    </filter>
    <radialGradient id="radial-gradient" cx="0.5" cy="0.5" r="0.5" gradientUnits="objectBoundingBox">
      <stop offset="0" stop-color="#dcebfe"/>
      <stop offset="0.065" stop-color="#dcebfe"/>
      <stop offset="0.278" stop-color="#8397b0"/>
      <stop offset="0.447" stop-color="#273a4d"/>
      <stop offset="0.623" stop-color="#273a4d"/>
      <stop offset="0.778" stop-color="#5d6f85"/>
      <stop offset="1" stop-color="#dcebfe"/>
    </radialGradient>
    <linearGradient id="linear-gradient-2" y1="0.5" x2="1" y2="0.5" gradientUnits="objectBoundingBox">
      <stop offset="0" stop-color="#031e37"/>
      <stop offset="1" stop-color="#576878"/>
    </linearGradient>
    <linearGradient id="linear-gradient-3" y1="0.5" x2="1" y2="0.5" gradientUnits="objectBoundingBox">
      <stop offset="0" stop-color="#504b61"/>
      <stop offset="1" stop-color="#100f13"/>
    </linearGradient>
    <radialGradient id="radial-gradient-2" cx="0.5" cy="0.5" r="0.5" gradientUnits="objectBoundingBox">
      <stop offset="0" stop-color="#fff"/>
      <stop offset="1" stop-color="#797979" stop-opacity="0"/>
    </radialGradient>
    <radialGradient id="radial-gradient-3" cx="0.5" cy="0.5" r="0.5" gradientUnits="objectBoundingBox">
      <stop offset="0" stop-color="#fff"/>
      <stop offset="0.205" stop-color="#f3f3f3" stop-opacity="0.914"/>
      <stop offset="1" stop-color="#797979" stop-opacity="0"/>
    </radialGradient>
    <radialGradient id="radial-gradient-13" cx="0.5" cy="0.5" r="0.5" gradientUnits="objectBoundingBox">
      <stop offset="0" stop-color="#f3f3eb"/>
      <stop offset="0.289" stop-color="#eeeee4"/>
      <stop offset="0.519" stop-color="#e0e0d1"/>
      <stop offset="0.732" stop-color="#cecfb9"/>
      <stop offset="0.87" stop-color="#c4c5ab"/>
      <stop offset="1" stop-color="#aeb08d"/>
    </radialGradient>
  </defs>
  <g id="SSC_BACK" data-name="SSC BACK" transform="translate(-184.141 1.5)">
    <rect id="Background" width="412" height="840" rx="55" transform="translate(188.641 3)" fill="url(#linear-gradient)"/>
    <g data-type="innerShadowGroup">
      <g transform="matrix(1, 0, 0, 1, 184.14, -1.5)" filter="url(#Rahmen)">
        <g id="Rahmen-3" data-name="Rahmen" transform="translate(4.5 4.5)" fill="none" stroke="#9dc9b7" stroke-width="7">
          <rect width="412" height="844" rx="55" stroke="none"/>
          <rect x="3.5" y="3.5" width="405" height="837" rx="51.5" fill="none"/>
        </g>
      </g>
      <g transform="matrix(1, 0, 0, 1, 184.14, -1.5)" filter="url(#Rahmen-2)">
        <rect id="Rahmen-4" data-name="Rahmen" width="412" height="844" rx="55" transform="translate(4.5 4.5)" fill="#fff"/>
      </g>
      <g id="Rahmen-5" data-name="Rahmen" transform="translate(188.641 3)" fill="none" stroke="#9dc9b7" stroke-width="7">
        <rect width="412" height="844" rx="55" stroke="none"/>
        <rect x="3.5" y="3.5" width="405" height="837" rx="51.5" fill="none"/>
      </g>
    </g>
    <g transform="matrix(1, 0, 0, 1, 184.14, -1.5)" filter="url(#wholeCamera)">
      <g id="wholeCamera-2" data-name="wholeCamera" transform="translate(27.5 30.5)" fill="#bce3d3" stroke="#aad7c5" stroke-width="2">
        <rect width="183" height="191" rx="41" stroke="none"/>
        <rect x="1" y="1" width="181" height="189" rx="40" fill="none"/>
      </g>
    </g>
    <path id="Logo" d="M8,0H26A20,20,0,0,1,46,20V38a8,8,0,0,1-8,8H20A20,20,0,0,1,0,26V8A8,8,0,0,1,8,0Z" transform="translate(371.641 402)" fill="#9dc9b7"/>
    <g id="something" transform="translate(371.641 170)" fill="#151b24" stroke="#1a1a1c" stroke-width="1">
      <circle cx="3.5" cy="3.5" r="3.5" stroke="none"/>
      <circle cx="3.5" cy="3.5" r="3" fill="none"/>
    </g>
    <path id="Pfad_5" data-name="Pfad 5" d="M0,0,3.344,1.4V91.741L0,93.138Z" transform="translate(600.687 192.468)" fill="#a3d2bf"/>
    <path id="Pfad_6" data-name="Pfad 6" d="M3.344,0,0,.893V58.659l3.344.893Z" transform="translate(185.646 171.988)" fill="#a3d2bf"/>
    <path id="Pfad_8" data-name="Pfad 8" d="M3.344,0,0,.4V26.3l3.344.4Z" transform="translate(185.999 116.996)" fill="#a3d2bf"/>
    <path id="Pfad_9" data-name="Pfad 9" d="M3.344,0,0,.893V58.659l3.344.893Z" transform="translate(185.646 247.969)" fill="#a3d2bf"/>
    <g id="Kamera" transform="translate(88.641 86)">
      <g id="Ellipse_12" data-name="Ellipse 12" transform="translate(130 46)" stroke="#000" stroke-width="0.5" fill="url(#radial-gradient)">
        <circle cx="40.5" cy="40.5" r="40.5" stroke="none"/>
        <circle cx="40.5" cy="40.5" r="40.25" fill="none"/>
      </g>
      <circle id="Ellipse_8" data-name="Ellipse 8" cx="34.5" cy="34.5" r="34.5" transform="translate(136 52)" fill="#151515"/>
      <circle id="Ellipse_10" data-name="Ellipse 10" cx="13.5" cy="13.5" r="13.5" transform="translate(157 73)" fill="#151b24"/>
      <g id="Ellipse_11" data-name="Ellipse 11" transform="translate(161 77)" stroke="#1e293a" stroke-width="0.5">
        <circle cx="9.5" cy="9.5" r="9.5" stroke="none"/>
        <circle cx="9.5" cy="9.5" r="9.25" fill="none"/>
      </g>
      <g id="Ellipse_13" data-name="Ellipse 13" transform="translate(138 54)" fill="none" stroke="#343434" stroke-width="1">
        <circle cx="32.5" cy="32.5" r="32.5" stroke="none"/>
        <circle cx="32.5" cy="32.5" r="32" fill="none"/>
      </g>
      <path id="Pfad_15" data-name="Pfad 15" d="M10.5.25a8.5,8.5,0,0,1,0,16.52Z" transform="translate(162 78)" fill="url(#linear-gradient-2)"/>
      <path id="Pfad_16" data-name="Pfad 16" d="M17,.25a8.5,8.5,0,0,0,0,16.52Z" transform="translate(151.5 78)" fill="url(#linear-gradient-3)"/>
      <circle id="Ellipse_14" data-name="Ellipse 14" cx="1.5" cy="1.5" r="1.5" transform="translate(173 88)" fill="url(#radial-gradient-2)"/>
      <circle id="Ellipse_15" data-name="Ellipse 15" cx="1" cy="1" r="1" transform="translate(167 83)" fill="url(#radial-gradient-3)"/>
      <circle id="Ellipse_16" data-name="Ellipse 16" cx="1.5" cy="1.5" r="1.5" transform="translate(173 88)" fill="url(#radial-gradient-2)"/>
    </g>
    <g id="Kamera-2" data-name="Kamera" transform="translate(173.641 38)">
      <g id="Ellipse_12-2" data-name="Ellipse 12" transform="translate(130 46)" stroke="#000" stroke-width="0.5" fill="url(#radial-gradient)">
        <circle cx="40.5" cy="40.5" r="40.5" stroke="none"/>
        <circle cx="40.5" cy="40.5" r="40.25" fill="none"/>
      </g>
      <circle id="Ellipse_8-2" data-name="Ellipse 8" cx="34.5" cy="34.5" r="34.5" transform="translate(136 52)" fill="#151515"/>
      <circle id="Ellipse_10-2" data-name="Ellipse 10" cx="13.5" cy="13.5" r="13.5" transform="translate(157 73)" fill="#151b24"/>
      <g id="Ellipse_11-2" data-name="Ellipse 11" transform="translate(161 77)" stroke="#1e293a" stroke-width="0.5">
        <circle cx="9.5" cy="9.5" r="9.5" stroke="none"/>
        <circle cx="9.5" cy="9.5" r="9.25" fill="none"/>
      </g>
      <g id="Ellipse_13-2" data-name="Ellipse 13" transform="translate(138 54)" fill="none" stroke="#343434" stroke-width="1">
        <circle cx="32.5" cy="32.5" r="32.5" stroke="none"/>
        <circle cx="32.5" cy="32.5" r="32" fill="none"/>
      </g>
      <path id="Pfad_15-2" data-name="Pfad 15" d="M10.5.25a8.5,8.5,0,0,1,0,16.52Z" transform="translate(162 78)" fill="url(#linear-gradient-2)"/>
      <path id="Pfad_16-2" data-name="Pfad 16" d="M17,.25a8.5,8.5,0,0,0,0,16.52Z" transform="translate(151.5 78)" fill="url(#linear-gradient-3)"/>
      <circle id="Ellipse_14-2" data-name="Ellipse 14" cx="1.5" cy="1.5" r="1.5" transform="translate(173 88)" fill="url(#radial-gradient-2)"/>
      <circle id="Ellipse_15-2" data-name="Ellipse 15" cx="1" cy="1" r="1" transform="translate(167 83)" fill="url(#radial-gradient-3)"/>
      <circle id="Ellipse_16-2" data-name="Ellipse 16" cx="1.5" cy="1.5" r="1.5" transform="translate(173 88)" fill="url(#radial-gradient-2)"/>
    </g>
    <g id="Kamera-3" data-name="Kamera" transform="translate(88.641 -10)">
      <g id="Ellipse_12-3" data-name="Ellipse 12" transform="translate(130 46)" stroke="#000" stroke-width="0.5" fill="url(#radial-gradient)">
        <circle cx="40.5" cy="40.5" r="40.5" stroke="none"/>
        <circle cx="40.5" cy="40.5" r="40.25" fill="none"/>
      </g>
      <circle id="Ellipse_8-3" data-name="Ellipse 8" cx="34.5" cy="34.5" r="34.5" transform="translate(136 52)" fill="#151515"/>
      <circle id="Ellipse_10-3" data-name="Ellipse 10" cx="13.5" cy="13.5" r="13.5" transform="translate(157 73)" fill="#151b24"/>
      <g id="Ellipse_11-3" data-name="Ellipse 11" transform="translate(161 77)" stroke="#1e293a" stroke-width="0.5">
        <circle cx="9.5" cy="9.5" r="9.5" stroke="none"/>
        <circle cx="9.5" cy="9.5" r="9.25" fill="none"/>
      </g>
      <g id="Ellipse_13-3" data-name="Ellipse 13" transform="translate(138 54)" fill="none" stroke="#343434" stroke-width="1">
        <circle cx="32.5" cy="32.5" r="32.5" stroke="none"/>
        <circle cx="32.5" cy="32.5" r="32" fill="none"/>
      </g>
      <path id="Pfad_15-3" data-name="Pfad 15" d="M10.5.25a8.5,8.5,0,0,1,0,16.52Z" transform="translate(162 78)" fill="url(#linear-gradient-2)"/>
      <path id="Pfad_16-3" data-name="Pfad 16" d="M17,.25a8.5,8.5,0,0,0,0,16.52Z" transform="translate(151.5 78)" fill="url(#linear-gradient-3)"/>
      <circle id="Ellipse_14-3" data-name="Ellipse 14" cx="1.5" cy="1.5" r="1.5" transform="translate(173 88)" fill="url(#radial-gradient-2)"/>
      <circle id="Ellipse_15-3" data-name="Ellipse 15" cx="1" cy="1" r="1" transform="translate(167 83)" fill="url(#radial-gradient-3)"/>
      <circle id="Ellipse_16-3" data-name="Ellipse 16" cx="1.5" cy="1.5" r="1.5" transform="translate(173 88)" fill="url(#radial-gradient-2)"/>
    </g>
    <g id="Lamp" transform="translate(327.641 44)" stroke="#1a1a1c" stroke-width="1" fill="url(#radial-gradient-13)">
      <circle cx="16.5" cy="16.5" r="16.5" stroke="none"/>
      <circle cx="16.5" cy="16.5" r="16" fill="none"/>
    </g>
    <g id="someSensor" transform="translate(324.641 172)" fill="#393939" stroke="#f2f2f2" stroke-width="1">
      <circle cx="20" cy="20" r="20" stroke="none"/>
      <circle cx="20" cy="20" r="19.5" fill="none"/>
    </g>
  </g>
</svg>
