<svg xmlns="http://www.w3.org/2000/svg" width="544" height="385.96" viewBox="0 0 544 385.96"><title>23924_Entwicklung der Wirtschaftssektoren</title><g id="Ebene_2" data-name="Ebene 2"><rect width="544" height="385.96" fill="#feefb6"/><path d="M57.4,87.63v33.44s99.91,37.73,191.87,42S522.4,125.53,522.4,125.53V87.63Z" fill="#ccef58"/><path d="M522.4,123.88s-14.5,0-77.5,3.42-102,26-189,25.3S57.4,113.13,57.4,113.13v23.44L377.61,303.31l144.69,12.9Z" fill="#29cccc"/><path d="M57.43,136.57s50-8.25,102,32.1,129.71,94.59,212,119c83,24.62,151,25.31,151,25.31v18.46H57.4Z" fill="#ebc73b"/><polyline points="57.4 87.97 57.4 331.44 522.4 331.44" fill="none" stroke="#333" stroke-miterlimit="10"/><line x1="50.9" y1="307.85" x2="522.3" y2="307.85" fill="none" stroke="#333" stroke-miterlimit="10"/><line x1="51.4" y1="283.38" x2="522.4" y2="283.38" fill="none" stroke="#333" stroke-miterlimit="10"/><line x1="51.4" y1="258.91" x2="522.4" y2="258.91" fill="none" stroke="#333" stroke-miterlimit="10"/><line x1="51.4" y1="234.44" x2="522.4" y2="234.44" fill="none" stroke="#333" stroke-miterlimit="10"/><line x1="51.4" y1="209.97" x2="522.4" y2="209.97" fill="none" stroke="#333" stroke-miterlimit="10"/><line x1="51.4" y1="185.51" x2="522.4" y2="185.51" fill="none" stroke="#333" stroke-miterlimit="10"/><line x1="51.4" y1="161.04" x2="522.4" y2="161.04" fill="none" stroke="#333" stroke-miterlimit="10"/><line x1="51.4" y1="136.57" x2="522.4" y2="136.57" fill="none" stroke="#333" stroke-miterlimit="10"/><line x1="51.4" y1="112.1" x2="522.4" y2="112.1" fill="none" stroke="#333" stroke-miterlimit="10"/><line x1="51.4" y1="87.63" x2="522.4" y2="87.63" fill="none" stroke="#333" stroke-miterlimit="10"/><path d="M63.25,353.44H61.6V343.17l-2.81,1.71-.72-1.17,3.73-2.31h1.45Z" fill="#333"/><path d="M74.34,350.22a3,3,0,0,1-.53,1.77,3.53,3.53,0,0,1-1.48,1.23,5.18,5.18,0,0,1-2.16.44,5,5,0,0,1-2.16-.43A3.35,3.35,0,0,1,66.56,352a3.11,3.11,0,0,1-.52-1.76,2.9,2.9,0,0,1,.61-1.87,4.34,4.34,0,0,1,1.77-1.26A3.59,3.59,0,0,1,67,346a2.88,2.88,0,0,1-.46-1.63,2.79,2.79,0,0,1,.51-1.68,3.24,3.24,0,0,1,1.35-1.06,4.51,4.51,0,0,1,1.79-.36,4.82,4.82,0,0,1,1.78.34,3.18,3.18,0,0,1,1.35,1,2.68,2.68,0,0,1,.53,1.66,2.43,2.43,0,0,1-.51,1.55A4.4,4.4,0,0,1,71.8,347C73.5,347.67,74.34,348.75,74.34,350.22ZM72,351.77a1.91,1.91,0,0,0,.65-1.53,2.14,2.14,0,0,0-.25-1.09,2.23,2.23,0,0,0-.81-.77A8,8,0,0,0,70,347.7l-.45-.16a3.14,3.14,0,0,0-1.33,1.09,2.89,2.89,0,0,0-.44,1.63,1.92,1.92,0,0,0,.65,1.54,2.68,2.68,0,0,0,1.77.55A2.62,2.62,0,0,0,72,351.77ZM68.72,343a1.74,1.74,0,0,0-.55,1.38,1.65,1.65,0,0,0,.53,1.32,5,5,0,0,0,1.7.83l.31.1a3.6,3.6,0,0,0,1.17-1,2.22,2.22,0,0,0,.36-1.28,1.77,1.77,0,0,0-.53-1.35,2.11,2.11,0,0,0-1.51-.51A2.16,2.16,0,0,0,68.72,343Z" fill="#333"/><path d="M83.19,342.81a11,11,0,0,1,0,9.25,3.64,3.64,0,0,1-6,0,11,11,0,0,1,0-9.25,3.65,3.65,0,0,1,6,0Zm-4.75.88a12.59,12.59,0,0,0,0,7.49,1.86,1.86,0,0,0,3.46,0,12.35,12.35,0,0,0,0-7.48,1.87,1.87,0,0,0-3.46,0Z" fill="#333"/><path d="M93.23,342.81a11,11,0,0,1,0,9.25,3.64,3.64,0,0,1-6,0,11.09,11.09,0,0,1,0-9.25,3.65,3.65,0,0,1,6,0Zm-4.75.88a12.59,12.59,0,0,0,0,7.49,1.87,1.87,0,0,0,3.47,0,12.55,12.55,0,0,0,0-7.48,1.88,1.88,0,0,0-3.47,0Z" fill="#333"/><path d="M47.48,326.07a11,11,0,0,1,0,9.24,3.64,3.64,0,0,1-6,0,11,11,0,0,1,0-9.24,3.64,3.64,0,0,1,6,0Zm-4.75.87a9,9,0,0,0-.57,3.74,9.13,9.13,0,0,0,.57,3.76,1.83,1.83,0,0,0,1.73,1.16,1.85,1.85,0,0,0,1.73-1.16,9.1,9.1,0,0,0,.58-3.76,9,9,0,0,0-.58-3.73,1.87,1.87,0,0,0-3.46,0Z" fill="#333"/><path d="M38,205.17h-4.7v3.54a4.26,4.26,0,0,1,1.93-.47,3.2,3.2,0,0,1,2.48,1,4,4,0,0,1,.94,2.8,4.24,4.24,0,0,1-.52,2.12,3.77,3.77,0,0,1-1.47,1.44,4.53,4.53,0,0,1-2.18.51,4.74,4.74,0,0,1-2-.39,5.36,5.36,0,0,1-1.6-1.14l1-1a3.68,3.68,0,0,0,1.15.87,3.26,3.26,0,0,0,1.39.28,2.34,2.34,0,0,0,1.81-.72,3,3,0,0,0,.65-2,2.58,2.58,0,0,0-.59-1.9,2.16,2.16,0,0,0-1.6-.6,3.92,3.92,0,0,0-.87.1,4.45,4.45,0,0,0-.84.32H31.7v-6.07h6.52Z" fill="#333"/><path d="M47.48,205.28a11,11,0,0,1,0,9.25,3.64,3.64,0,0,1-6,0,11,11,0,0,1,0-9.25,3.65,3.65,0,0,1,6,0Zm-4.75.88a12.59,12.59,0,0,0,0,7.49,1.81,1.81,0,0,0,1.73,1.16,1.83,1.83,0,0,0,1.73-1.16,12.35,12.35,0,0,0,0-7.48,1.87,1.87,0,0,0-3.46,0Z" fill="#333"/><path d="M27.42,103H25.76V92.76L23,94.47l-.72-1.17L26,91h1.46Z" fill="#333"/><path d="M37.43,92.41a8.62,8.62,0,0,1,1,4.62,8.66,8.66,0,0,1-1,4.63,3.64,3.64,0,0,1-6,0,8.76,8.76,0,0,1-1-4.63,8.73,8.73,0,0,1,1-4.62,3.65,3.65,0,0,1,6,0Zm-4.75.88A9,9,0,0,0,32.11,97a9,9,0,0,0,.57,3.75,1.87,1.87,0,0,0,3.47,0A9,9,0,0,0,36.72,97a9,9,0,0,0-.57-3.73,1.87,1.87,0,0,0-3.47,0Z" fill="#333"/><path d="M47.48,92.41a8.62,8.62,0,0,1,1,4.62,8.66,8.66,0,0,1-1,4.63,3.64,3.64,0,0,1-6,0,8.66,8.66,0,0,1-1-4.63,8.62,8.62,0,0,1,1-4.62,3.65,3.65,0,0,1,6,0Zm-4.75.88A9,9,0,0,0,42.16,97a9,9,0,0,0,.57,3.75A1.82,1.82,0,0,0,44.46,102a1.84,1.84,0,0,0,1.73-1.17A9,9,0,0,0,46.77,97a9,9,0,0,0-.58-3.73,1.87,1.87,0,0,0-3.46,0Z" fill="#333"/><path d="M187.93,117.86a5.93,5.93,0,0,1,1.82,1.15l-1.17,1.35a4.8,4.8,0,0,0-1.34-.81,4.33,4.33,0,0,0-1.45-.25,2.32,2.32,0,0,0-1.4.39,1.28,1.28,0,0,0-.53,1.09,1.32,1.32,0,0,0,.21.77,1.93,1.93,0,0,0,.74.58,10.41,10.41,0,0,0,1.61.59,7.24,7.24,0,0,1,2.76,1.43,3.22,3.22,0,0,1,.93,2.5,3.48,3.48,0,0,1-.57,2,3.8,3.8,0,0,1-1.63,1.36,6.09,6.09,0,0,1-2.52.48,6.62,6.62,0,0,1-2.55-.46,5.79,5.79,0,0,1-1.93-1.25l1.24-1.37a5.23,5.23,0,0,0,1.48.93,4.45,4.45,0,0,0,1.71.31,2.65,2.65,0,0,0,1.65-.48,1.64,1.64,0,0,0,.63-1.37,1.7,1.7,0,0,0-.21-.89,2,2,0,0,0-.74-.63,9.14,9.14,0,0,0-1.51-.59,7,7,0,0,1-2.87-1.47,3.33,3.33,0,0,1-.34-4.07,3.52,3.52,0,0,1,1.51-1.21,5.4,5.4,0,0,1,2.18-.43A6.35,6.35,0,0,1,187.93,117.86Z" fill="#333"/><path d="M199.83,126.14h-6a3.11,3.11,0,0,0,.73,2,2.18,2.18,0,0,0,1.61.6,3.35,3.35,0,0,0,1.19-.21,5.61,5.61,0,0,0,1.19-.64l1,1.31a5.5,5.5,0,0,1-3.53,1.28,4.22,4.22,0,0,1-3.35-1.33,5.28,5.28,0,0,1-1.18-3.64,6.65,6.65,0,0,1,.5-2.62,4.11,4.11,0,0,1,1.46-1.81,4.33,4.33,0,0,1,5.36.61,5.22,5.22,0,0,1,1.1,3.53C199.88,125.32,199.86,125.64,199.83,126.14Zm-2.24-1.6c0-1.67-.61-2.5-1.85-2.5a1.56,1.56,0,0,0-1.32.62,3.65,3.65,0,0,0-.57,2h3.74Z" fill="#333"/><path d="M204.31,130.19H202V116.85l2.31-.25Zm2.54-5.33,3.47,5.33h-2.65L204.4,125l3.18-4.32H210Z" fill="#333"/><path d="M219.23,130.19h-2l-.12-1.33a3.45,3.45,0,0,1-1.24,1.2,3.32,3.32,0,0,1-1.68.4,2.5,2.5,0,0,1-2-.78,3.18,3.18,0,0,1-.69-2.17v-6.84h2.3v6.55a1.79,1.79,0,0,0,.28,1.15,1.07,1.07,0,0,0,.89.35,2.34,2.34,0,0,0,1.93-1.36v-6.69h2.3Z" fill="#333"/><path d="M229.07,121.16a3.05,3.05,0,0,1,.71,2.14v6.89h-2.31v-6.53a1.82,1.82,0,0,0-.29-1.19,1.1,1.1,0,0,0-.88-.34,1.7,1.7,0,0,0-1.07.37,4.21,4.21,0,0,0-.92,1.07v6.62H222v-9.52h2l.18,1.26a3.56,3.56,0,0,1,2.9-1.53A2.59,2.59,0,0,1,229.07,121.16Z" fill="#333"/><path d="M240.47,116.85v13.34h-2l-.17-1.21a3.24,3.24,0,0,1-1.13,1.08,3,3,0,0,1-1.58.4,3.08,3.08,0,0,1-2.69-1.35,6.37,6.37,0,0,1-.93-3.67,6.73,6.73,0,0,1,.47-2.62,4,4,0,0,1,1.34-1.78,3.37,3.37,0,0,1,2.06-.64,3.15,3.15,0,0,1,2.36,1V116.6Zm-3.19,11.57a3.07,3.07,0,0,0,.89-.93v-4.35a3.05,3.05,0,0,0-.83-.76,1.87,1.87,0,0,0-1-.25,1.65,1.65,0,0,0-1.47.82,4.53,4.53,0,0,0-.53,2.47,5,5,0,0,0,.47,2.53,1.5,1.5,0,0,0,1.36.77A2,2,0,0,0,237.28,128.42Z" fill="#333"/><path d="M250.45,128.49a1.19,1.19,0,0,0,.55.41l-.49,1.53a3,3,0,0,1-1.32-.39,2,2,0,0,1-.78-1,3,3,0,0,1-1.22,1.07,3.75,3.75,0,0,1-1.63.35,3.1,3.1,0,0,1-2.25-.81,2.84,2.84,0,0,1-.82-2.12,2.74,2.74,0,0,1,1.12-2.37,5.36,5.36,0,0,1,3.21-.82H248v-.54a1.67,1.67,0,0,0-.42-1.29,2.09,2.09,0,0,0-1.36-.36,7.86,7.86,0,0,0-2.52.5l-.54-1.57a9.75,9.75,0,0,1,3.46-.68q3.65,0,3.65,3.28v4A1.57,1.57,0,0,0,250.45,128.49Zm-4.9-12.07a1.19,1.19,0,0,1,.36.88,1.23,1.23,0,0,1-.36.89,1.21,1.21,0,0,1-.9.35,1.24,1.24,0,0,1-.9-.35,1.23,1.23,0,0,1-.36-.89,1.19,1.19,0,0,1,.36-.88,1.25,1.25,0,0,1,.9-.36A1.22,1.22,0,0,1,245.55,116.42Zm2.46,11.2v-1.93h-.95c-1.49,0-2.23.55-2.23,1.66a1.52,1.52,0,0,0,.34,1.06,1.3,1.3,0,0,0,1,.38A2,2,0,0,0,248,127.62Zm1.53-11.2a1.19,1.19,0,0,1,.36.88,1.22,1.22,0,0,1-1.28,1.24,1.2,1.2,0,0,1-.88-.35,1.23,1.23,0,0,1-.36-.89,1.19,1.19,0,0,1,.36-.88,1.21,1.21,0,0,1,.88-.36A1.24,1.24,0,0,1,249.54,116.42Z" fill="#333"/><path d="M258.72,120.54l-.39,2.23a3.58,3.58,0,0,0-.85-.1,1.62,1.62,0,0,0-1.33.6,4.65,4.65,0,0,0-.78,1.86v5.06h-2.3v-9.52h2l.21,1.87a3.43,3.43,0,0,1,1-1.57,2.24,2.24,0,0,1,1.5-.55A3.53,3.53,0,0,1,258.72,120.54Z" fill="#333"/><path d="M267.74,126.14h-6a3.16,3.16,0,0,0,.73,2,2.18,2.18,0,0,0,1.61.6,3.35,3.35,0,0,0,1.19-.21,5.61,5.61,0,0,0,1.19-.64l.95,1.31a5.47,5.47,0,0,1-3.52,1.28,4.23,4.23,0,0,1-3.36-1.33,5.28,5.28,0,0,1-1.18-3.64,6.65,6.65,0,0,1,.5-2.62,4.18,4.18,0,0,1,1.46-1.81,4.34,4.34,0,0,1,5.37.61,5.21,5.21,0,0,1,1.09,3.53C267.79,125.32,267.78,125.64,267.74,126.14Zm-2.23-1.6c0-1.67-.62-2.5-1.86-2.5a1.56,1.56,0,0,0-1.32.62,3.65,3.65,0,0,0-.57,2h3.75Z" fill="#333"/><path d="M275.57,120.54l-.4,2.23a3.5,3.5,0,0,0-.84-.1,1.6,1.6,0,0,0-1.33.6,4.51,4.51,0,0,0-.78,1.86v5.06h-2.3v-9.52h2l.21,1.87a3.43,3.43,0,0,1,1-1.57,2.23,2.23,0,0,1,1.5-.55A3.58,3.58,0,0,1,275.57,120.54Z" fill="#333"/><path d="M287.45,117.86a5.93,5.93,0,0,1,1.82,1.15l-1.17,1.35a4.8,4.8,0,0,0-1.34-.81,4.33,4.33,0,0,0-1.45-.25,2.32,2.32,0,0,0-1.4.39,1.28,1.28,0,0,0-.53,1.09,1.32,1.32,0,0,0,.21.77,1.89,1.89,0,0,0,.75.58,10.22,10.22,0,0,0,1.6.59,7.24,7.24,0,0,1,2.76,1.43,3.22,3.22,0,0,1,.93,2.5,3.48,3.48,0,0,1-.57,2,3.8,3.8,0,0,1-1.63,1.36,6.09,6.09,0,0,1-2.52.48,6.54,6.54,0,0,1-2.54-.46,5.74,5.74,0,0,1-1.94-1.25l1.24-1.37a5.23,5.23,0,0,0,1.48.93,4.45,4.45,0,0,0,1.71.31,2.65,2.65,0,0,0,1.65-.48,1.64,1.64,0,0,0,.63-1.37,1.7,1.7,0,0,0-.21-.89,2,2,0,0,0-.74-.63,9.14,9.14,0,0,0-1.51-.59,6.89,6.89,0,0,1-2.86-1.47,3,3,0,0,1-.89-2.27,3.08,3.08,0,0,1,.54-1.8,3.52,3.52,0,0,1,1.51-1.21,5.4,5.4,0,0,1,2.18-.43A6.35,6.35,0,0,1,287.45,117.86Z" fill="#333"/><path d="M299.35,126.14h-6a3.16,3.16,0,0,0,.73,2,2.18,2.18,0,0,0,1.61.6,3.35,3.35,0,0,0,1.19-.21,5.61,5.61,0,0,0,1.19-.64l1,1.31a5.48,5.48,0,0,1-3.53,1.28,4.22,4.22,0,0,1-3.35-1.33,5.28,5.28,0,0,1-1.18-3.64,6.65,6.65,0,0,1,.5-2.62,4.11,4.11,0,0,1,1.46-1.81,3.89,3.89,0,0,1,2.27-.66,3.85,3.85,0,0,1,3.09,1.27,5.17,5.17,0,0,1,1.1,3.53C299.4,125.32,299.38,125.64,299.35,126.14Zm-2.23-1.6c0-1.67-.62-2.5-1.86-2.5a1.56,1.56,0,0,0-1.32.62,3.65,3.65,0,0,0-.57,2h3.75Z" fill="#333"/><path d="M303.83,130.19h-2.3V116.85l2.3-.25Zm2.54-5.33,3.47,5.33H307.2l-3.28-5.2,3.19-4.32h2.43Z" fill="#333"/><path d="M316.59,129.74a3.63,3.63,0,0,1-1.12.54,4.58,4.58,0,0,1-1.27.18,2.84,2.84,0,0,1-2.14-.8,3.3,3.3,0,0,1-.72-2.31v-5h-1.5v-1.65h1.5v-2.11l2.3-.27v2.38h2.21l-.23,1.65h-2v5a1.65,1.65,0,0,0,.24,1,.91.91,0,0,0,.77.31,2.17,2.17,0,0,0,1.13-.36Z" fill="#333"/><path d="M324.88,121.74a5.35,5.35,0,0,1,1.18,3.68,6.1,6.1,0,0,1-.54,2.64,4.12,4.12,0,0,1-1.55,1.77,4.42,4.42,0,0,1-2.39.63,4.2,4.2,0,0,1-3.3-1.34,5.39,5.39,0,0,1-1.18-3.7,6.09,6.09,0,0,1,.54-2.63,4.09,4.09,0,0,1,1.55-1.76,4.49,4.49,0,0,1,2.41-.63A4.16,4.16,0,0,1,324.88,121.74Zm-5.35,3.68a4.73,4.73,0,0,0,.51,2.49,1.69,1.69,0,0,0,1.54.81,1.72,1.72,0,0,0,1.54-.82,6.26,6.26,0,0,0,0-5,1.69,1.69,0,0,0-1.52-.8Q319.53,122.15,319.53,125.42Z" fill="#333"/><path d="M333.87,120.54l-.39,2.23a3.58,3.58,0,0,0-.85-.1,1.62,1.62,0,0,0-1.33.6,4.65,4.65,0,0,0-.78,1.86v5.06h-2.3v-9.52h2l.21,1.87a3.43,3.43,0,0,1,1-1.57,2.24,2.24,0,0,1,1.5-.55A3.53,3.53,0,0,1,333.87,120.54Z" fill="#333"/><path d="M82.13,36.31H76v4.63h5.32v2.35H76v4.87h6.55v2.38H72.84V34h9.62Z" fill="#333"/><path d="M94.88,38.5a4,4,0,0,1,1,2.85v9.19H92.76V41.83a2.43,2.43,0,0,0-.4-1.59,1.46,1.46,0,0,0-1.16-.45,2.25,2.25,0,0,0-1.43.49,5.64,5.64,0,0,0-1.24,1.43v8.83H85.46V37.84h2.67l.24,1.68a4.73,4.73,0,0,1,3.86-2A3.43,3.43,0,0,1,94.88,38.5Z" fill="#333"/><path d="M106.68,49.94a5,5,0,0,1-1.5.72,6.05,6.05,0,0,1-1.69.24,3.78,3.78,0,0,1-2.85-1.07,4.36,4.36,0,0,1-1-3.08v-6.7h-2V37.84h2V35l3.07-.37v3.17h3l-.31,2.21h-2.64v6.62a2.16,2.16,0,0,0,.33,1.35,1.21,1.21,0,0,0,1,.41A2.93,2.93,0,0,0,105.6,48Z" fill="#333"/><path d="M121.15,50.54h-3.84l-1.92-10-2,10h-3.77l-2.8-12.7h3.07l1.77,10.44,2.21-10.44H117l2,10.44L121,37.84h3Z" fill="#333"/><path d="M128.94,32a1.8,1.8,0,0,1,.54,1.33,1.76,1.76,0,0,1-.54,1.32,1.9,1.9,0,0,1-1.41.53,1.86,1.86,0,0,1-1.38-.53,1.76,1.76,0,0,1-.54-1.32,1.8,1.8,0,0,1,.54-1.33,1.87,1.87,0,0,1,1.38-.54A1.91,1.91,0,0,1,128.94,32Zm.15,18.59H126V37.84h3.07Z" fill="#333"/><path d="M140.15,37.84A6,6,0,0,1,142,39l-1.37,1.85a5.13,5.13,0,0,0-1.25-.7,4,4,0,0,0-1.32-.21q-2.85,0-2.85,4.34a5.36,5.36,0,0,0,.74,3.18,2.5,2.5,0,0,0,2.11,1,3.55,3.55,0,0,0,1.24-.21,8.32,8.32,0,0,0,1.33-.7L142,49.44a6.36,6.36,0,0,1-4.11,1.46,6,6,0,0,1-3.16-.81,5.24,5.24,0,0,1-2.07-2.29,8,8,0,0,1-.72-3.5,8.35,8.35,0,0,1,.72-3.56,5.5,5.5,0,0,1,2.07-2.41,5.78,5.78,0,0,1,3.14-.85A6.64,6.64,0,0,1,140.15,37.84Z" fill="#333"/><path d="M147.33,50.54h-3.07V32.75l3.07-.33Zm3.39-7.1,4.63,7.1h-3.53l-4.37-6.94,4.25-5.76h3.24Z" fill="#333"/><path d="M157.79,50.05a3.29,3.29,0,0,1-.83-2.42V32.75l3.07-.33V47.54c0,.59.24.89.72.89a2.27,2.27,0,0,0,.72-.12l.65,2.16a5,5,0,0,1-2,.43A3,3,0,0,1,157.79,50.05Z" fill="#333"/><path d="M174.31,50.54h-2.66l-.17-1.78a4.77,4.77,0,0,1-1.65,1.61,4.55,4.55,0,0,1-2.24.53,3.35,3.35,0,0,1-2.63-1A4.21,4.21,0,0,1,164,47V37.84h3.07v8.74a2.47,2.47,0,0,0,.37,1.54,1.47,1.47,0,0,0,1.19.45,3.1,3.1,0,0,0,2.57-1.8V37.84h3.07Z" fill="#333"/><path d="M187.42,38.5a4,4,0,0,1,1,2.85v9.19H185.3V41.83a2.5,2.5,0,0,0-.39-1.59,1.49,1.49,0,0,0-1.17-.45,2.27,2.27,0,0,0-1.43.49,5.63,5.63,0,0,0-1.23,1.43v8.83H178V37.84h2.67l.24,1.68a4.73,4.73,0,0,1,3.86-2A3.43,3.43,0,0,1,187.42,38.5Z" fill="#333"/><path d="M203,38.51a11.64,11.64,0,0,1-3.67.44,4.32,4.32,0,0,1,1.74,1.3,3.33,3.33,0,0,1,.56,2,4,4,0,0,1-.61,2.21,4.16,4.16,0,0,1-1.78,1.51,6.23,6.23,0,0,1-2.72.55,5.23,5.23,0,0,1-1.51-.19,1.07,1.07,0,0,0-.53.94c0,.59.51.89,1.53.89H198a6.06,6.06,0,0,1,2.43.45A3.69,3.69,0,0,1,202,49.86a3.13,3.13,0,0,1,.58,1.85,3.36,3.36,0,0,1-1.63,3,8.54,8.54,0,0,1-4.7,1.07,10.64,10.64,0,0,1-3.47-.45A3.37,3.37,0,0,1,191,54a4.23,4.23,0,0,1-.53-2.21h2.76a1.88,1.88,0,0,0,.25,1.05,1.55,1.55,0,0,0,.91.58,7.19,7.19,0,0,0,1.91.19,5.06,5.06,0,0,0,2.47-.43,1.37,1.37,0,0,0,.72-1.25,1.27,1.27,0,0,0-.55-1.11,2.68,2.68,0,0,0-1.6-.4h-1.92a4.42,4.42,0,0,1-2.72-.7,2.1,2.1,0,0,1-.91-1.75,2.36,2.36,0,0,1,.4-1.3,3.33,3.33,0,0,1,1.09-1.05,4.14,4.14,0,0,1-1.69-1.48A3.9,3.9,0,0,1,191,42a4.29,4.29,0,0,1,.67-2.4,4.46,4.46,0,0,1,1.86-1.59,6.21,6.21,0,0,1,2.72-.57,10.76,10.76,0,0,0,3.25-.3,13.42,13.42,0,0,0,2.68-1.11Zm-8.27,1.72a2.57,2.57,0,0,0-.59,1.77,2.65,2.65,0,0,0,.6,1.82,2.43,2.43,0,0,0,3.34,0,2.76,2.76,0,0,0,.57-1.86c0-1.6-.76-2.4-2.3-2.4A2.05,2.05,0,0,0,194.72,40.23Z" fill="#333"/><path d="M221.52,32.75V50.54H218.8l-.21-1.61a4.51,4.51,0,0,1-1.51,1.44,4.2,4.2,0,0,1-2.12.53,4.08,4.08,0,0,1-3.57-1.8,8.48,8.48,0,0,1-1.25-4.9,9.28,9.28,0,0,1,.62-3.49,5.53,5.53,0,0,1,1.79-2.38,4.58,4.58,0,0,1,2.75-.85,4.21,4.21,0,0,1,3.14,1.37V32.42Zm-4.25,15.42a4,4,0,0,0,1.17-1.23V41.13a4.09,4.09,0,0,0-1.1-1,2.56,2.56,0,0,0-1.3-.33,2.2,2.2,0,0,0-1.95,1.09,6.18,6.18,0,0,0-.71,3.3,6.84,6.84,0,0,0,.62,3.37,2,2,0,0,0,1.83,1A2.6,2.6,0,0,0,217.27,48.17Z" fill="#333"/><path d="M235.56,45.14h-8a4.14,4.14,0,0,0,1,2.64,2.92,2.92,0,0,0,2.15.79,4.34,4.34,0,0,0,1.58-.28,6.91,6.91,0,0,0,1.59-.85l1.27,1.76a7.35,7.35,0,0,1-4.71,1.7A5.64,5.64,0,0,1,226,49.12a7,7,0,0,1-1.57-4.84,8.7,8.7,0,0,1,.67-3.5A5.51,5.51,0,0,1,227,38.36a5.79,5.79,0,0,1,7.16.81,7,7,0,0,1,1.46,4.72C235.63,44.05,235.6,44.47,235.56,45.14Zm-3-2.14c0-2.22-.82-3.33-2.47-3.33a2.1,2.1,0,0,0-1.77.83,5,5,0,0,0-.75,2.65h5Z" fill="#333"/><path d="M246,37.67l-.53,3a4.48,4.48,0,0,0-1.13-.14,2.19,2.19,0,0,0-1.78.8,6.37,6.37,0,0,0-1,2.48v6.75h-3.07V37.84h2.66l.29,2.5a4.69,4.69,0,0,1,1.32-2.1,3,3,0,0,1,2-.73A4.67,4.67,0,0,1,246,37.67Z" fill="#333"/><path d="M268.72,50.54H264.6l-2.52-13.22-2.6,13.22h-4l-3-16.58h3.14L257.73,48,260.44,34h3.36L266.47,48,268.77,34h3Z" fill="#333"/><path d="M276.92,32a1.8,1.8,0,0,1,.54,1.33,1.76,1.76,0,0,1-.54,1.32,1.89,1.89,0,0,1-1.4.53,1.86,1.86,0,0,1-1.38-.53,1.76,1.76,0,0,1-.54-1.32,1.8,1.8,0,0,1,.54-1.33,1.87,1.87,0,0,1,1.38-.54A1.9,1.9,0,0,1,276.92,32Zm.16,18.59H274V37.84h3.08Z" fill="#333"/><path d="M288.31,37.67l-.53,3a4.43,4.43,0,0,0-1.13-.14,2.16,2.16,0,0,0-1.77.8,6.21,6.21,0,0,0-1,2.48v6.75h-3.07V37.84h2.67l.28,2.5a4.69,4.69,0,0,1,1.32-2.1,3,3,0,0,1,2-.73A4.65,4.65,0,0,1,288.31,37.67Z" fill="#333"/><path d="M297.86,49.94a5,5,0,0,1-1.5.72,6.05,6.05,0,0,1-1.69.24,3.78,3.78,0,0,1-2.85-1.07,4.41,4.41,0,0,1-1-3.08v-6.7h-2V37.84h2V35l3.07-.37v3.17h3l-.32,2.21h-2.64v6.62a2.16,2.16,0,0,0,.33,1.35,1.21,1.21,0,0,0,1,.41,2.93,2.93,0,0,0,1.51-.48Z" fill="#333"/><path d="M308.11,39l-1.2,1.79a6,6,0,0,0-3.19-1,2.5,2.5,0,0,0-1.42.35,1.06,1.06,0,0,0-.5.93,1.17,1.17,0,0,0,.21.71,1.9,1.9,0,0,0,.78.54,13,13,0,0,0,1.67.57,7.27,7.27,0,0,1,3.06,1.46,3.31,3.31,0,0,1,1,2.55,3.42,3.42,0,0,1-1.54,3,6.54,6.54,0,0,1-3.82,1.07,8.06,8.06,0,0,1-2.84-.48,6.82,6.82,0,0,1-2.22-1.32l1.54-1.73a5.66,5.66,0,0,0,3.45,1.25,3,3,0,0,0,1.65-.41,1.3,1.3,0,0,0,.61-1.13,1.47,1.47,0,0,0-.23-.87,1.82,1.82,0,0,0-.82-.58,16.57,16.57,0,0,0-1.83-.61,6.05,6.05,0,0,1-2.86-1.48,3.26,3.26,0,0,1-.91-2.36,3.15,3.15,0,0,1,.61-1.9A4.1,4.1,0,0,1,301,38a6.42,6.42,0,0,1,2.56-.48A7.14,7.14,0,0,1,308.11,39Z" fill="#333"/><path d="M318.37,37.84A6,6,0,0,1,320.25,39l-1.37,1.85a5.08,5.08,0,0,0-1.24-.7,4,4,0,0,0-1.32-.21q-2.86,0-2.86,4.34a5.36,5.36,0,0,0,.74,3.18,2.51,2.51,0,0,0,2.12,1,3.49,3.49,0,0,0,1.23-.21,8.32,8.32,0,0,0,1.33-.7l1.37,1.95a6.35,6.35,0,0,1-4.1,1.46,6,6,0,0,1-3.17-.81,5.22,5.22,0,0,1-2.06-2.29,8,8,0,0,1-.72-3.5,8.35,8.35,0,0,1,.72-3.56A5.48,5.48,0,0,1,313,38.33a5.81,5.81,0,0,1,3.14-.85A6.6,6.6,0,0,1,318.37,37.84Z" fill="#333"/><path d="M331.89,38.51a4,4,0,0,1,1,2.84v9.19h-3.07V41.83a2.43,2.43,0,0,0-.4-1.59,1.46,1.46,0,0,0-1.16-.45,2.31,2.31,0,0,0-1.42.49,5.79,5.79,0,0,0-1.24,1.4v8.86h-3.08V32.78l3.08-.31v6.91a4.57,4.57,0,0,1,3.69-1.9A3.46,3.46,0,0,1,331.89,38.51Z" fill="#333"/><path d="M346,48.27a1.49,1.49,0,0,0,.73.54l-.65,2a3.85,3.85,0,0,1-1.76-.52,2.55,2.55,0,0,1-1-1.33,4.17,4.17,0,0,1-1.62,1.43,5,5,0,0,1-2.18.47,4.12,4.12,0,0,1-3-1.08,3.8,3.8,0,0,1-1.1-2.83,3.67,3.67,0,0,1,1.5-3.16,7.18,7.18,0,0,1,4.28-1.09h1.59V42a2.18,2.18,0,0,0-.57-1.72,2.76,2.76,0,0,0-1.81-.49,10.91,10.91,0,0,0-3.36.67l-.72-2.08a12.82,12.82,0,0,1,4.61-.92q4.88,0,4.87,4.37v5.33A2.06,2.06,0,0,0,346,48.27Zm-3.25-1.16V44.54h-1.27c-2,0-3,.74-3,2.21a2,2,0,0,0,.46,1.41,1.7,1.7,0,0,0,1.34.51A2.72,2.72,0,0,0,342.79,47.11Z" fill="#333"/><path d="M353.36,35.17a1.9,1.9,0,0,0-.4,1.33v1.34H356l-.33,2.21H353V50.54h-3.07V40.05h-2.06V37.84h2.06V36.45a3.83,3.83,0,0,1,1.17-2.91,4.53,4.53,0,0,1,3.3-1.12,7.8,7.8,0,0,1,3.28.74l-.88,2.07a4.94,4.94,0,0,0-2.09-.48A1.73,1.73,0,0,0,353.36,35.17Z" fill="#333"/><path d="M365.13,49.94a5,5,0,0,1-1.5.72,6.05,6.05,0,0,1-1.69.24,3.78,3.78,0,0,1-2.85-1.07,4.41,4.41,0,0,1-1-3.08v-6.7h-2V37.84h2V35l3.07-.37v3.17h3l-.32,2.21h-2.64v6.62a2.16,2.16,0,0,0,.33,1.35,1.21,1.21,0,0,0,1,.41,2.93,2.93,0,0,0,1.51-.48Z" fill="#333"/><path d="M375.38,39l-1.2,1.79a6,6,0,0,0-3.19-1,2.5,2.5,0,0,0-1.42.35,1.06,1.06,0,0,0-.5.93,1.17,1.17,0,0,0,.21.71,1.9,1.9,0,0,0,.78.54,13,13,0,0,0,1.67.57,7.27,7.27,0,0,1,3.06,1.46,3.31,3.31,0,0,1,1,2.55,3.42,3.42,0,0,1-1.54,3,6.52,6.52,0,0,1-3.82,1.07,8.06,8.06,0,0,1-2.84-.48,6.92,6.92,0,0,1-2.22-1.32l1.54-1.73a5.66,5.66,0,0,0,3.45,1.25,3,3,0,0,0,1.65-.41,1.28,1.28,0,0,0,.61-1.13,1.47,1.47,0,0,0-.23-.87,1.84,1.84,0,0,0-.81-.58,17.7,17.7,0,0,0-1.84-.61,6.05,6.05,0,0,1-2.86-1.48,3.26,3.26,0,0,1-.91-2.36,3.15,3.15,0,0,1,.61-1.9A4.1,4.1,0,0,1,368.31,38a6.42,6.42,0,0,1,2.56-.48A7.14,7.14,0,0,1,375.38,39Z" fill="#333"/><path d="M386.8,39l-1.2,1.79a6,6,0,0,0-3.19-1,2.45,2.45,0,0,0-1.41.35,1.07,1.07,0,0,0-.51.93,1.11,1.11,0,0,0,.22.71,1.77,1.77,0,0,0,.78.54,12.42,12.42,0,0,0,1.67.57,7.4,7.4,0,0,1,3.06,1.46,3.3,3.3,0,0,1,1,2.55,3.41,3.41,0,0,1-1.53,3,6.57,6.57,0,0,1-3.82,1.07,8,8,0,0,1-2.84-.48,6.82,6.82,0,0,1-2.22-1.32l1.53-1.73a5.7,5.7,0,0,0,3.46,1.25,2.93,2.93,0,0,0,1.64-.41,1.28,1.28,0,0,0,.61-1.13,1.47,1.47,0,0,0-.22-.87,1.94,1.94,0,0,0-.82-.58,16.18,16.18,0,0,0-1.84-.61,6.06,6.06,0,0,1-2.85-1.48,3.26,3.26,0,0,1-.91-2.36,3.15,3.15,0,0,1,.61-1.9A4,4,0,0,1,379.74,38a6.37,6.37,0,0,1,2.55-.48A7.12,7.12,0,0,1,386.8,39Z" fill="#333"/><path d="M400.05,45.14h-8a4.19,4.19,0,0,0,1,2.64,2.9,2.9,0,0,0,2.14.79,4.43,4.43,0,0,0,1.59-.28,7.07,7.07,0,0,0,1.58-.85l1.27,1.76a7.31,7.31,0,0,1-4.7,1.7,5.65,5.65,0,0,1-4.48-1.78,7.08,7.08,0,0,1-1.57-4.84,8.88,8.88,0,0,1,.67-3.5,5.53,5.53,0,0,1,1.95-2.42,5.78,5.78,0,0,1,7.15.81,7,7,0,0,1,1.46,4.72C400.12,44.05,400.1,44.47,400.05,45.14Zm-3-2.14c0-2.22-.83-3.33-2.48-3.33a2.07,2.07,0,0,0-1.76.83,4.94,4.94,0,0,0-.76,2.65h5Z" fill="#333"/><path d="M406,50.54H403V32.75l3.08-.33Zm3.38-7.1,4.63,7.1h-3.53l-4.36-6.94,4.24-5.76h3.24Z" fill="#333"/><path d="M423,49.94a5,5,0,0,1-1.5.72,6,6,0,0,1-1.69.24A3.76,3.76,0,0,1,417,49.83a4.36,4.36,0,0,1-1-3.08v-6.7h-2V37.84h2V35l3.07-.37v3.17h2.95l-.31,2.21h-2.64v6.62a2.16,2.16,0,0,0,.32,1.35,1.24,1.24,0,0,0,1,.41A2.93,2.93,0,0,0,422,48Z" fill="#333"/><path d="M434.09,39.27a7.17,7.17,0,0,1,1.58,4.91A8.17,8.17,0,0,1,435,47.7a5.48,5.48,0,0,1-2.07,2.36,5.88,5.88,0,0,1-3.19.84,5.56,5.56,0,0,1-4.39-1.79,7.15,7.15,0,0,1-1.59-4.93,8.24,8.24,0,0,1,.72-3.51,5.6,5.6,0,0,1,2.08-2.35,5.94,5.94,0,0,1,3.2-.84A5.51,5.51,0,0,1,434.09,39.27ZM427,44.18a6.26,6.26,0,0,0,.68,3.32,2.49,2.49,0,0,0,4.1,0,6.26,6.26,0,0,0,.69-3.31,6.19,6.19,0,0,0-.69-3.3,2.25,2.25,0,0,0-2-1.07C427.87,39.81,427,41.27,427,44.18Z" fill="#333"/><path d="M446.08,37.67l-.52,3a4.54,4.54,0,0,0-1.13-.14,2.17,2.17,0,0,0-1.78.8,6.37,6.37,0,0,0-1,2.48v6.75h-3.07V37.84h2.66l.29,2.5a4.52,4.52,0,0,1,1.32-2.1,3,3,0,0,1,2-.73A4.55,4.55,0,0,1,446.08,37.67Z" fill="#333"/><path d="M458.11,45.14h-8a4.19,4.19,0,0,0,1,2.64,2.92,2.92,0,0,0,2.15.79,4.34,4.34,0,0,0,1.58-.28,6.91,6.91,0,0,0,1.59-.85l1.27,1.76a7.35,7.35,0,0,1-4.7,1.7,5.65,5.65,0,0,1-4.48-1.78A7,7,0,0,1,447,44.28a8.7,8.7,0,0,1,.67-3.5,5.51,5.51,0,0,1,1.94-2.42,5.25,5.25,0,0,1,3-.88,5.17,5.17,0,0,1,4.12,1.69,7,7,0,0,1,1.47,4.72C458.18,44.05,458.16,44.47,458.11,45.14Zm-3-2.14c0-2.22-.82-3.33-2.47-3.33a2.07,2.07,0,0,0-1.76.83,4.86,4.86,0,0,0-.76,2.65h5Z" fill="#333"/><path d="M470.43,38.5a4,4,0,0,1,.95,2.85v9.19h-3.07V41.83a2.49,2.49,0,0,0-.4-1.59,1.46,1.46,0,0,0-1.16-.45,2.25,2.25,0,0,0-1.43.49,5.45,5.45,0,0,0-1.24,1.43v8.83H461V37.84h2.66l.25,1.68a4.73,4.73,0,0,1,3.86-2A3.43,3.43,0,0,1,470.43,38.5Z" fill="#333"/><path d="M355.8,219h-3.24v10.55h-2.39V219h-3.35v-1.89h9.23Z" fill="#333"/><path d="M363.85,225.47h-6a3.14,3.14,0,0,0,.73,2,2.18,2.18,0,0,0,1.61.6,3.35,3.35,0,0,0,1.19-.21,5.61,5.61,0,0,0,1.19-.64l1,1.31a5.44,5.44,0,0,1-3.53,1.28,4.22,4.22,0,0,1-3.35-1.33,5.28,5.28,0,0,1-1.18-3.64,6.48,6.48,0,0,1,.5-2.62,4.11,4.11,0,0,1,1.46-1.81,3.89,3.89,0,0,1,2.27-.66A3.85,3.85,0,0,1,362.8,221a5.18,5.18,0,0,1,1.1,3.54C363.9,224.66,363.88,225,363.85,225.47Zm-2.23-1.6c0-1.67-.62-2.5-1.86-2.5a1.56,1.56,0,0,0-1.32.62,3.68,3.68,0,0,0-.57,2h3.75Z" fill="#333"/><path d="M371.68,219.87l-.4,2.24a3.15,3.15,0,0,0-.85-.11,1.63,1.63,0,0,0-1.33.6,4.66,4.66,0,0,0-.77,1.86v5.06H366V220h2l.22,1.87a3.43,3.43,0,0,1,1-1.57,2.22,2.22,0,0,1,1.49-.55A3.6,3.6,0,0,1,371.68,219.87Z" fill="#333"/><path d="M378.84,229.07a3.75,3.75,0,0,1-1.12.54,4.58,4.58,0,0,1-1.27.18,2.84,2.84,0,0,1-2.14-.8,3.3,3.3,0,0,1-.73-2.31v-5h-1.49V220h1.49v-2.11l2.31-.27V220h2.21l-.23,1.66h-2v5a1.65,1.65,0,0,0,.24,1,.91.91,0,0,0,.77.31,2.2,2.2,0,0,0,1.13-.36Z" fill="#333"/><path d="M382.32,215.58a1.36,1.36,0,0,1,.41,1,1.32,1.32,0,0,1-.41,1,1.46,1.46,0,0,1-1.05.4,1.43,1.43,0,0,1-1-.4,1.32,1.32,0,0,1-.41-1,1.36,1.36,0,0,1,.41-1,1.39,1.39,0,0,1,1-.4A1.42,1.42,0,0,1,382.32,215.58Zm.12,13.94h-2.3V220h2.3Z" fill="#333"/><path d="M392.42,227.82a1.19,1.19,0,0,0,.55.41l-.48,1.53a3.07,3.07,0,0,1-1.33-.39,2,2,0,0,1-.78-1,3,3,0,0,1-1.22,1.07,3.74,3.74,0,0,1-1.62.35,3.07,3.07,0,0,1-2.25-.81,2.81,2.81,0,0,1-.83-2.12,2.76,2.76,0,0,1,1.12-2.37,5.36,5.36,0,0,1,3.21-.82H390v-.54a1.67,1.67,0,0,0-.42-1.29,2.07,2.07,0,0,0-1.36-.36,7.91,7.91,0,0,0-2.52.5l-.54-1.57a9.75,9.75,0,0,1,3.46-.68q3.64,0,3.65,3.28v4A1.57,1.57,0,0,0,392.42,227.82Zm-4.9-12.07a1.27,1.27,0,0,1,0,1.77,1.29,1.29,0,0,1-1.79,0,1.24,1.24,0,0,1,0-1.77,1.29,1.29,0,0,1,1.79,0ZM390,227V225h-1c-1.49,0-2.23.55-2.23,1.66a1.52,1.52,0,0,0,.34,1.06,1.3,1.3,0,0,0,1,.38A2,2,0,0,0,390,227Zm1.53-11.2a1.27,1.27,0,0,1,0,1.77,1.24,1.24,0,0,1-.92.36,1.25,1.25,0,1,1,0-2.49A1.24,1.24,0,0,1,391.51,215.75Z" fill="#333"/><path d="M400.69,219.87l-.39,2.24a3.15,3.15,0,0,0-.85-.11,1.62,1.62,0,0,0-1.33.6,4.65,4.65,0,0,0-.78,1.86v5.06H395V220h2l.21,1.87a3.43,3.43,0,0,1,1-1.57,2.24,2.24,0,0,1,1.5-.55A3.53,3.53,0,0,1,400.69,219.87Z" fill="#333"/><path d="M409.71,225.47h-6a3.14,3.14,0,0,0,.73,2,2.2,2.2,0,0,0,1.61.6,3.35,3.35,0,0,0,1.19-.21,5.61,5.61,0,0,0,1.19-.64l.95,1.31a5.42,5.42,0,0,1-3.52,1.28,4.24,4.24,0,0,1-3.36-1.33,5.28,5.28,0,0,1-1.18-3.64,6.65,6.65,0,0,1,.5-2.62,4.18,4.18,0,0,1,1.46-1.81,4.34,4.34,0,0,1,5.37.61,5.23,5.23,0,0,1,1.09,3.54C409.76,224.66,409.75,225,409.71,225.47Zm-2.23-1.6c0-1.67-.62-2.5-1.85-2.5a1.57,1.57,0,0,0-1.33.62,3.68,3.68,0,0,0-.57,2h3.75Z" fill="#333"/><path d="M417.54,219.87l-.4,2.24a3.08,3.08,0,0,0-.84-.11,1.6,1.6,0,0,0-1.33.6,4.51,4.51,0,0,0-.78,1.86v5.06h-2.3V220h2l.21,1.87a3.43,3.43,0,0,1,1-1.57,2.23,2.23,0,0,1,1.5-.55A3.58,3.58,0,0,1,417.54,219.87Z" fill="#333"/><path d="M429.42,217.19a5.93,5.93,0,0,1,1.82,1.15l-1.17,1.35a4.8,4.8,0,0,0-1.34-.81,4.33,4.33,0,0,0-1.45-.25,2.32,2.32,0,0,0-1.4.39,1.28,1.28,0,0,0-.53,1.09,1.32,1.32,0,0,0,.21.77,1.89,1.89,0,0,0,.75.58,10.22,10.22,0,0,0,1.6.59,7.39,7.39,0,0,1,2.76,1.43,3.22,3.22,0,0,1,.93,2.5,3.53,3.53,0,0,1-.57,2,3.85,3.85,0,0,1-1.63,1.35,6.09,6.09,0,0,1-2.52.48,6.54,6.54,0,0,1-2.54-.46,5.74,5.74,0,0,1-1.94-1.25l1.24-1.37a5.23,5.23,0,0,0,1.48.93,4.45,4.45,0,0,0,1.71.32,2.65,2.65,0,0,0,1.65-.49,1.62,1.62,0,0,0,.63-1.37,1.7,1.7,0,0,0-.21-.89,2,2,0,0,0-.74-.63,8.43,8.43,0,0,0-1.51-.58,7,7,0,0,1-2.86-1.48,3,3,0,0,1-.89-2.27,3.08,3.08,0,0,1,.54-1.8,3.56,3.56,0,0,1,1.51-1.2,5.24,5.24,0,0,1,2.18-.44A6.35,6.35,0,0,1,429.42,217.19Z" fill="#333"/><path d="M441.32,225.47h-6a3.14,3.14,0,0,0,.73,2,2.18,2.18,0,0,0,1.61.6,3.35,3.35,0,0,0,1.19-.21,5.61,5.61,0,0,0,1.19-.64l.95,1.31a5.43,5.43,0,0,1-3.53,1.28,4.22,4.22,0,0,1-3.35-1.33,5.28,5.28,0,0,1-1.18-3.64,6.65,6.65,0,0,1,.5-2.62,4.11,4.11,0,0,1,1.46-1.81,3.89,3.89,0,0,1,2.27-.66,3.85,3.85,0,0,1,3.09,1.27,5.18,5.18,0,0,1,1.1,3.54C441.37,224.66,441.35,225,441.32,225.47Zm-2.23-1.6c0-1.67-.62-2.5-1.86-2.5a1.56,1.56,0,0,0-1.32.62,3.68,3.68,0,0,0-.57,2h3.75Z" fill="#333"/><path d="M445.8,229.52h-2.3V216.18l2.3-.25Zm2.54-5.33,3.47,5.33h-2.64l-3.28-5.2,3.19-4.32h2.43Z" fill="#333"/><path d="M458.56,229.07a3.63,3.63,0,0,1-1.12.54,4.58,4.58,0,0,1-1.27.18A2.8,2.8,0,0,1,454,229a3.25,3.25,0,0,1-.73-2.31v-5h-1.5V220h1.5v-2.11l2.3-.27V220h2.21l-.23,1.66h-2v5a1.65,1.65,0,0,0,.24,1,.91.91,0,0,0,.77.31,2.17,2.17,0,0,0,1.13-.36Z" fill="#333"/><path d="M466.85,221.07a5.35,5.35,0,0,1,1.18,3.68,6.1,6.1,0,0,1-.54,2.64,4.12,4.12,0,0,1-1.55,1.77,4.42,4.42,0,0,1-2.39.63,4.2,4.2,0,0,1-3.3-1.34,5.39,5.39,0,0,1-1.18-3.7,6.09,6.09,0,0,1,.54-2.63,4.09,4.09,0,0,1,1.55-1.76,4.49,4.49,0,0,1,2.41-.63A4.16,4.16,0,0,1,466.85,221.07Zm-5.35,3.68a4.73,4.73,0,0,0,.51,2.49,1.87,1.87,0,0,0,3.08,0,4.77,4.77,0,0,0,.51-2.49,4.69,4.69,0,0,0-.51-2.47,1.68,1.68,0,0,0-1.52-.8Q461.5,221.48,461.5,224.75Z" fill="#333"/><path d="M475.84,219.87l-.39,2.24a3.15,3.15,0,0,0-.85-.11,1.62,1.62,0,0,0-1.33.6,4.65,4.65,0,0,0-.78,1.86v5.06h-2.3V220h2l.21,1.87a3.43,3.43,0,0,1,1-1.57,2.24,2.24,0,0,1,1.5-.55A3.53,3.53,0,0,1,475.84,219.87Z" fill="#333"/><path d="M93.45,265.64a3.48,3.48,0,0,1,1.32,3,3.67,3.67,0,0,1-1.33,3.1,5.62,5.62,0,0,1-3.54,1H88.44v4.34H86.06V264.65h3.67A6.1,6.1,0,0,1,93.45,265.64Zm-1.81,4.8a2.27,2.27,0,0,0,.65-1.83q0-2.22-2.58-2.22H88.44V271h1.27A3,3,0,0,0,91.64,270.44Z" fill="#333"/><path d="M102.28,267.44l-.4,2.23a3.59,3.59,0,0,0-.84-.11,1.62,1.62,0,0,0-1.34.61,4.66,4.66,0,0,0-.77,1.86v5.06h-2.3v-9.53h2l.22,1.88a3.46,3.46,0,0,1,1-1.58,2.27,2.27,0,0,1,1.49-.55A3.59,3.59,0,0,1,102.28,267.44Z" fill="#333"/><path d="M105.91,263.15a1.34,1.34,0,0,1,.4,1,1.31,1.31,0,0,1-.4,1,1.42,1.42,0,0,1-1.06.4,1.39,1.39,0,0,1-1-.4,1.32,1.32,0,0,1-.41-1,1.35,1.35,0,0,1,.41-1,1.39,1.39,0,0,1,1-.41A1.43,1.43,0,0,1,105.91,263.15Zm.11,13.94h-2.3v-9.53H106Z" fill="#333"/><path d="M120.73,268.08a3.11,3.11,0,0,1,.68,2.11v6.9h-2.3v-6.54q0-1.53-1-1.53a1.44,1.44,0,0,0-1,.35,4.58,4.58,0,0,0-.84,1.09v6.63H114v-6.54c0-1-.35-1.53-1-1.53a1.45,1.45,0,0,0-1,.35,4.58,4.58,0,0,0-.84,1.09v6.63h-2.31v-9.53h2l.18,1.25a3.27,3.27,0,0,1,2.76-1.52,2.35,2.35,0,0,1,2.32,1.61,4,4,0,0,1,1.24-1.2,3.1,3.1,0,0,1,1.6-.41A2.34,2.34,0,0,1,120.73,268.08Z" fill="#333"/><path d="M131.3,275.39a1.11,1.11,0,0,0,.55.4l-.48,1.53a3.12,3.12,0,0,1-1.33-.39,2,2,0,0,1-.78-1,3,3,0,0,1-1.21,1.08,3.78,3.78,0,0,1-1.63.35,3.07,3.07,0,0,1-2.25-.81,2.82,2.82,0,0,1-.83-2.13,2.73,2.73,0,0,1,1.12-2.36,5.37,5.37,0,0,1,3.22-.82h1.18v-.54a1.65,1.65,0,0,0-.42-1.29,2,2,0,0,0-1.36-.37,8.25,8.25,0,0,0-2.52.5L124,268a9.56,9.56,0,0,1,3.46-.69c2.43,0,3.65,1.1,3.65,3.28v4A1.59,1.59,0,0,0,131.3,275.39Zm-4.9-12.07a1.26,1.26,0,0,1,0,1.76,1.29,1.29,0,0,1-1.79,0,1.23,1.23,0,0,1,0-1.76,1.29,1.29,0,0,1,1.79,0Zm2.46,11.19v-1.92h-1c-1.49,0-2.23.55-2.23,1.65a1.5,1.5,0,0,0,.34,1.06,1.26,1.26,0,0,0,1,.38A2,2,0,0,0,128.86,274.51Zm1.53-11.19a1.26,1.26,0,0,1,0,1.76,1.23,1.23,0,0,1-.91.36,1.21,1.21,0,0,1-.89-.36,1.26,1.26,0,0,1,0-1.76,1.21,1.21,0,0,1,.89-.36A1.23,1.23,0,0,1,130.39,263.32Z" fill="#333"/><path d="M139.57,267.44l-.39,2.23a3.61,3.61,0,0,0-.85-.11,1.6,1.6,0,0,0-1.33.61,4.66,4.66,0,0,0-.77,1.86v5.06h-2.31v-9.53h2l.22,1.88a3.31,3.31,0,0,1,1-1.58,2.27,2.27,0,0,1,1.49-.55A3.46,3.46,0,0,1,139.57,267.44Z" fill="#333"/><path d="M148.59,273h-6a3.07,3.07,0,0,0,.73,2,2.2,2.2,0,0,0,1.61.59,3.29,3.29,0,0,0,1.18-.21,5,5,0,0,0,1.19-.64l1,1.32a5.52,5.52,0,0,1-3.53,1.28A4.29,4.29,0,0,1,141.4,276a5.35,5.35,0,0,1-1.18-3.64,6.45,6.45,0,0,1,.51-2.62,4.18,4.18,0,0,1,1.45-1.82,4.34,4.34,0,0,1,5.37.61,5.26,5.26,0,0,1,1.1,3.54C148.65,272.22,148.63,272.53,148.59,273Zm-2.23-1.61c0-1.66-.62-2.5-1.85-2.5a1.59,1.59,0,0,0-1.33.62,3.81,3.81,0,0,0-.56,2h3.74Z" fill="#333"/><path d="M156.42,267.44l-.39,2.23a3.61,3.61,0,0,0-.85-.11,1.6,1.6,0,0,0-1.33.61,4.65,4.65,0,0,0-.78,1.86v5.06h-2.3v-9.53h2l.21,1.88a3.46,3.46,0,0,1,1-1.58,2.29,2.29,0,0,1,1.5-.55A3.52,3.52,0,0,1,156.42,267.44Z" fill="#333"/><path d="M168.3,264.76a5.64,5.64,0,0,1,1.82,1.15L169,267.26a4.66,4.66,0,0,0-1.34-.81,4.05,4.05,0,0,0-1.45-.25,2.34,2.34,0,0,0-1.39.38,1.28,1.28,0,0,0-.54,1.09,1.35,1.35,0,0,0,.21.78,2,2,0,0,0,.75.57,11.15,11.15,0,0,0,1.6.6,7.17,7.17,0,0,1,2.76,1.43,3.21,3.21,0,0,1,.93,2.49,3.49,3.49,0,0,1-.57,2,3.65,3.65,0,0,1-1.63,1.35,5.87,5.87,0,0,1-2.52.49,6.8,6.8,0,0,1-2.54-.46,6.17,6.17,0,0,1-1.94-1.25l1.24-1.37a5.23,5.23,0,0,0,1.48.93,4.52,4.52,0,0,0,1.71.31,2.68,2.68,0,0,0,1.66-.48,1.65,1.65,0,0,0,.63-1.37,1.7,1.7,0,0,0-.22-.89,1.75,1.75,0,0,0-.74-.63,8.33,8.33,0,0,0-1.51-.59,7.07,7.07,0,0,1-2.86-1.48,3,3,0,0,1-.88-2.26,3,3,0,0,1,.54-1.8,3.55,3.55,0,0,1,1.5-1.21,5.25,5.25,0,0,1,2.19-.43A6.12,6.12,0,0,1,168.3,264.76Z" fill="#333"/><path d="M180.2,273h-6a3.19,3.19,0,0,0,.73,2,2.22,2.22,0,0,0,1.61.59,3.35,3.35,0,0,0,1.19-.21,5.19,5.19,0,0,0,1.19-.64l.95,1.32a5.47,5.47,0,0,1-3.52,1.28A4.26,4.26,0,0,1,173,276a5.3,5.3,0,0,1-1.18-3.64,6.62,6.62,0,0,1,.5-2.62,4.27,4.27,0,0,1,1.46-1.82,4.34,4.34,0,0,1,5.37.61,5.26,5.26,0,0,1,1.09,3.54C180.25,272.22,180.24,272.53,180.2,273ZM178,271.43c0-1.66-.62-2.5-1.86-2.5a1.59,1.59,0,0,0-1.32.62,3.71,3.71,0,0,0-.57,2H178Z" fill="#333"/><path d="M184.68,277.09h-2.3V263.75l2.3-.25Zm2.54-5.33,3.47,5.33h-2.64l-3.28-5.21,3.19-4.32h2.43Z" fill="#333"/><path d="M197.44,276.64a3.63,3.63,0,0,1-1.12.54,4.58,4.58,0,0,1-1.27.18,2.84,2.84,0,0,1-2.13-.8,3.29,3.29,0,0,1-.73-2.32v-5h-1.5v-1.66h1.5v-2.1l2.3-.27v2.37h2.22l-.24,1.66h-2v5a1.67,1.67,0,0,0,.24,1,1,1,0,0,0,.77.3,2.17,2.17,0,0,0,1.13-.36Z" fill="#333"/><path d="M205.73,268.64a5.35,5.35,0,0,1,1.18,3.68,6.09,6.09,0,0,1-.54,2.63,4,4,0,0,1-1.55,1.78,4.42,4.42,0,0,1-2.39.63,4.18,4.18,0,0,1-3.29-1.34,5.36,5.36,0,0,1-1.19-3.7,6.06,6.06,0,0,1,.54-2.63,4.12,4.12,0,0,1,1.55-1.77,4.49,4.49,0,0,1,2.41-.63A4.12,4.12,0,0,1,205.73,268.64Zm-5.35,3.68a4.73,4.73,0,0,0,.51,2.49,1.88,1.88,0,0,0,3.08,0,6.28,6.28,0,0,0,0-5,1.7,1.7,0,0,0-1.52-.8C201.07,269,200.38,270.13,200.38,272.32Z" fill="#333"/><path d="M214.72,267.44l-.39,2.23a3.61,3.61,0,0,0-.85-.11,1.6,1.6,0,0,0-1.33.61,4.66,4.66,0,0,0-.77,1.86v5.06h-2.31v-9.53h2l.22,1.88a3.31,3.31,0,0,1,1-1.58,2.27,2.27,0,0,1,1.49-.55A3.46,3.46,0,0,1,214.72,267.44Z" fill="#333"/><path d="M277.56,353.44H275.9V343.17l-2.81,1.71-.72-1.17,3.73-2.31h1.46Z" fill="#333"/><path d="M287.1,342.47a5.4,5.4,0,0,1,1,3.43,9.79,9.79,0,0,1-.67,4,5.37,5.37,0,0,1-2,2.39,14.06,14.06,0,0,1-3.71,1.58l-.38-1.24a9.21,9.21,0,0,0,3.7-1.86,4.27,4.27,0,0,0,1.38-3.11,3.19,3.19,0,0,1-2.7,1.44,3.06,3.06,0,0,1-1.69-.48,3.29,3.29,0,0,1-1.2-1.35,4.51,4.51,0,0,1-.44-2,4.11,4.11,0,0,1,.52-2.12,3.57,3.57,0,0,1,1.4-1.38,3.92,3.92,0,0,1,1.93-.48A3.49,3.49,0,0,1,287.1,342.47Zm-.69,3.81a5.57,5.57,0,0,0-.49-2.87,1.83,1.83,0,0,0-1.68-.87,2,2,0,0,0-1.64.7,3,3,0,0,0-.58,2,2.84,2.84,0,0,0,.54,1.89,1.81,1.81,0,0,0,1.46.64A2.79,2.79,0,0,0,286.41,346.28Z" fill="#333"/><path d="M296.55,342.7h-4.7v3.54a4.19,4.19,0,0,1,1.93-.46,3.19,3.19,0,0,1,2.48,1,4,4,0,0,1,.94,2.8,4.25,4.25,0,0,1-.53,2.12,3.68,3.68,0,0,1-1.46,1.44,4.54,4.54,0,0,1-2.19.51,4.7,4.7,0,0,1-2-.39,5.24,5.24,0,0,1-1.6-1.14l1-1a3.72,3.72,0,0,0,1.16.87,3.21,3.21,0,0,0,1.38.28,2.33,2.33,0,0,0,1.81-.72,2.9,2.9,0,0,0,.66-2,2.59,2.59,0,0,0-.6-1.91,2.14,2.14,0,0,0-1.6-.6,3.83,3.83,0,0,0-.86.1,4.28,4.28,0,0,0-.85.32h-1.29V341.4h6.51Z" fill="#333"/><path d="M306,342.81a11,11,0,0,1,0,9.25,3.64,3.64,0,0,1-6,0,11.09,11.09,0,0,1,0-9.25,3.65,3.65,0,0,1,6,0Zm-4.75.88a12.59,12.59,0,0,0,0,7.49,1.87,1.87,0,0,0,3.47,0,12.55,12.55,0,0,0,0-7.48,1.88,1.88,0,0,0-3.47,0Z" fill="#333"/><path d="M491.61,341.65a3.14,3.14,0,0,1,1.72,2.87,4.7,4.7,0,0,1-.5,2.1,10.1,10.1,0,0,1-1.52,2.18q-1,1.17-3.11,3.26h5.41l-.19,1.38h-7.11v-1.31c1.61-1.67,2.74-2.89,3.42-3.66a10.53,10.53,0,0,0,1.44-2,4,4,0,0,0,.43-1.85,2,2,0,0,0-.54-1.47,2,2,0,0,0-1.44-.53,2.6,2.6,0,0,0-1.3.31,4.38,4.38,0,0,0-1.15,1l-1.12-.86a5.09,5.09,0,0,1,1.64-1.37,4.44,4.44,0,0,1,2-.45A4.12,4.12,0,0,1,491.61,341.65Z" fill="#333"/><path d="M500.33,353.44h-1.66V343.17l-2.81,1.71-.72-1.17,3.73-2.31h1.46Z" fill="#333"/><path d="M510.35,342.81a11.09,11.09,0,0,1,0,9.25,3.64,3.64,0,0,1-6,0,11,11,0,0,1,0-9.25,3.65,3.65,0,0,1,6,0Zm-4.76.88a12.8,12.8,0,0,0,0,7.49,1.87,1.87,0,0,0,3.47,0,12.55,12.55,0,0,0,0-7.48,1.88,1.88,0,0,0-3.47,0Z" fill="#333"/><path d="M520.39,342.81a11,11,0,0,1,0,9.25,3.64,3.64,0,0,1-6,0,11,11,0,0,1,0-9.25,3.65,3.65,0,0,1,6,0Zm-4.75.88a12.59,12.59,0,0,0,0,7.49,1.86,1.86,0,0,0,3.46,0,12.35,12.35,0,0,0,0-7.48,1.87,1.87,0,0,0-3.46,0Z" fill="#333"/><line x1="57.4" y1="331.44" x2="57.4" y2="336.7" fill="none" stroke="#333" stroke-miterlimit="10"/><line x1="289.9" y1="331.44" x2="289.9" y2="336.7" fill="none" stroke="#333" stroke-miterlimit="10"/><line x1="521.91" y1="331.16" x2="521.91" y2="336.42" fill="none" stroke="#333" stroke-miterlimit="10"/><line x1="57.4" y1="331.44" x2="51.18" y2="331.44" fill="none" stroke="#333" stroke-miterlimit="10"/></g></svg>