<svg xmlns="http://www.w3.org/2000/svg" xmlns:xlink="http://www.w3.org/1999/xlink" width="446" height="853" viewBox="0 0 446 853">
  <defs>
    <filter id="Rahmen" x="0" y="0" width="446" height="853" filterUnits="userSpaceOnUse">
      <feOffset input="SourceAlpha"/>
      <feGaussianBlur stdDeviation="1.5" result="blur"/>
      <feFlood flood-opacity="0.161"/>
      <feComposite operator="in" in2="blur"/>
    </filter>
    <filter id="Rahmen-2" x="0" y="0" width="446" height="853" filterUnits="userSpaceOnUse">
      <feOffset dx="10" input="SourceAlpha"/>
      <feGaussianBlur stdDeviation="3" result="blur-2"/>
      <feFlood flood-color="#fff" result="color"/>
      <feComposite operator="out" in="SourceGraphic" in2="blur-2"/>
      <feComposite operator="in" in="color"/>
      <feComposite operator="in" in2="SourceGraphic"/>
    </filter>
    <radialGradient id="radial-gradient" cx="0.5" cy="0.5" r="0.5" gradientUnits="objectBoundingBox">
      <stop offset="0" stop-color="#dcebfe"/>
      <stop offset="0.065" stop-color="#dcebfe"/>
      <stop offset="0.278" stop-color="#8397b0"/>
      <stop offset="0.447" stop-color="#273a4d"/>
      <stop offset="0.623" stop-color="#273a4d"/>
      <stop offset="0.778" stop-color="#5d6f85"/>
      <stop offset="1" stop-color="#dcebfe"/>
    </radialGradient>
    <linearGradient id="linear-gradient" y1="0.5" x2="1" y2="0.5" gradientUnits="objectBoundingBox">
      <stop offset="0" stop-color="#031e37"/>
      <stop offset="1" stop-color="#576878"/>
    </linearGradient>
    <linearGradient id="linear-gradient-2" y1="0.5" x2="1" y2="0.5" gradientUnits="objectBoundingBox">
      <stop offset="0" stop-color="#504b61"/>
      <stop offset="1" stop-color="#100f13"/>
    </linearGradient>
    <radialGradient id="radial-gradient-2" cx="0.5" cy="0.5" r="0.5" gradientUnits="objectBoundingBox">
      <stop offset="0" stop-color="#fff"/>
      <stop offset="1" stop-color="#797979" stop-opacity="0"/>
    </radialGradient>
    <radialGradient id="radial-gradient-3" cx="0.5" cy="0.5" r="0.5" gradientUnits="objectBoundingBox">
      <stop offset="0" stop-color="#fff"/>
      <stop offset="0.205" stop-color="#f3f3f3" stop-opacity="0.914"/>
      <stop offset="1" stop-color="#797979" stop-opacity="0"/>
    </radialGradient>
    <radialGradient id="radial-gradient-5" cx="0.5" cy="0.5" r="0.5" gradientUnits="objectBoundingBox">
      <stop offset="0" stop-color="#f3f3eb"/>
      <stop offset="0.289" stop-color="#eeeee4"/>
      <stop offset="0.519" stop-color="#e0e0d1"/>
      <stop offset="0.732" stop-color="#cecfb9"/>
      <stop offset="0.87" stop-color="#c4c5ab"/>
      <stop offset="1" stop-color="#aeb08d"/>
    </radialGradient>
  </defs>
  <g id="SSA_BACK" data-name="SSA+ BACK" transform="translate(1.496 4.5)">
    <rect id="Background" width="437" height="844" rx="55" transform="translate(3.004)" fill="#e03637"/>
    <g data-type="innerShadowGroup">
      <g transform="matrix(1, 0, 0, 1, -1.5, -4.5)" filter="url(#Rahmen)">
        <g id="Rahmen-3" data-name="Rahmen" transform="translate(4.5 4.5)" fill="none" stroke="#ae140f" stroke-width="7">
          <rect width="437" height="844" rx="55" stroke="none"/>
          <rect x="3.5" y="3.5" width="430" height="837" rx="51.5" fill="none"/>
        </g>
      </g>
      <g transform="matrix(1, 0, 0, 1, -1.5, -4.5)" filter="url(#Rahmen-2)">
        <rect id="Rahmen-4" data-name="Rahmen" width="437" height="844" rx="55" transform="translate(4.5 4.5)" fill="#fff"/>
      </g>
      <g id="Rahmen-5" data-name="Rahmen" transform="translate(3.004)" fill="none" stroke="#ae140f" stroke-width="7">
        <rect width="437" height="844" rx="55" stroke="none"/>
        <rect x="3.5" y="3.5" width="430" height="837" rx="51.5" fill="none"/>
      </g>
    </g>
    <path id="Pfad_5" data-name="Pfad 5" d="M3.55,0,0,1.4V91.741l3.55,1.4Z" transform="translate(0 189.468)" fill="#e53b3c"/>
    <path id="Pfad_6" data-name="Pfad 6" d="M0,0,3.55.893V58.659L0,59.552Z" transform="translate(440.605 168.988)" fill="#e53b3c"/>
    <path id="Pfad_8" data-name="Pfad 8" d="M0,0,3.55.4V26.3L0,26.7Z" transform="translate(440.229 113.996)" fill="#e53b3c"/>
    <path id="Pfad_9" data-name="Pfad 9" d="M0,0,3.55.893V58.659L0,59.552Z" transform="translate(440.605 244.969)" fill="#e53b3c"/>
    <g id="Kamera_klein" data-name="Kamera klein" transform="translate(33.004 33)">
      <g id="Ellipse_12" data-name="Ellipse 12" stroke="#000" stroke-width="0.5" fill="url(#radial-gradient)">
        <circle cx="26.5" cy="26.5" r="26.5" stroke="none"/>
        <circle cx="26.5" cy="26.5" r="26.25" fill="none"/>
      </g>
      <circle id="Ellipse_8" data-name="Ellipse 8" cx="22.5" cy="22.5" r="22.5" transform="translate(4 4)" fill="#151515"/>
      <circle id="Ellipse_10" data-name="Ellipse 10" cx="13.5" cy="13.5" r="13.5" transform="translate(13 13)" fill="#151b24"/>
      <g id="Ellipse_11" data-name="Ellipse 11" transform="translate(17 17)" stroke="#1e293a" stroke-width="0.5">
        <circle cx="9.5" cy="9.5" r="9.5" stroke="none"/>
        <circle cx="9.5" cy="9.5" r="9.25" fill="none"/>
      </g>
      <g id="Ellipse_13" data-name="Ellipse 13" transform="translate(5 5)" fill="none" stroke="#343434" stroke-width="1">
        <circle cx="21.5" cy="21.5" r="21.5" stroke="none"/>
        <circle cx="21.5" cy="21.5" r="21" fill="none"/>
      </g>
      <path id="Pfad_15" data-name="Pfad 15" d="M10.5.25a8.5,8.5,0,0,1,0,16.52Z" transform="translate(18 18)" fill="url(#linear-gradient)"/>
      <path id="Pfad_16" data-name="Pfad 16" d="M17,.25a8.5,8.5,0,0,0,0,16.52Z" transform="translate(7.5 18)" fill="url(#linear-gradient-2)"/>
      <circle id="Ellipse_14" data-name="Ellipse 14" cx="1.5" cy="1.5" r="1.5" transform="translate(29 28)" fill="url(#radial-gradient-2)"/>
      <circle id="Ellipse_15" data-name="Ellipse 15" cx="1" cy="1" r="1" transform="translate(23 23)" fill="url(#radial-gradient-3)"/>
      <circle id="Ellipse_16" data-name="Ellipse 16" cx="1.5" cy="1.5" r="1.5" transform="translate(29 28)" fill="url(#radial-gradient-2)"/>
    </g>
    <path id="Logo" d="M8,0H26A20,20,0,0,1,46,20V38a8,8,0,0,1-8,8H20A20,20,0,0,1,0,26V8A8,8,0,0,1,8,0Z" transform="translate(199.004 399)" fill="#ae140f"/>
    <g id="Lamp_klein" data-name="Lamp klein" transform="translate(117.004 47)" stroke="#1a1a1c" stroke-width="1" fill="url(#radial-gradient-5)">
      <circle cx="12.5" cy="12.5" r="12.5" stroke="none"/>
      <circle cx="12.5" cy="12.5" r="12" fill="none"/>
    </g>
    <g id="something" transform="translate(100.004 56)" fill="#151b24" stroke="#1a1a1c" stroke-width="1">
      <circle cx="3.5" cy="3.5" r="3.5" stroke="none"/>
      <circle cx="3.5" cy="3.5" r="3" fill="none"/>
    </g>
  </g>
</svg>
