<svg xmlns="http://www.w3.org/2000/svg" xmlns:xlink="http://www.w3.org/1999/xlink" width="427.314" height="812" viewBox="0 0 427.314 812">
  <defs>
    <clipPath id="clip-path">
      <rect id="Rechteck_1" data-name="Rechteck 1" width="418.448" height="812" rx="55" transform="translate(0)" fill="none" stroke="#707070" stroke-width="19"/>
    </clipPath>
  </defs>
  <g id="SSB_FRONT" data-name="SSB FRONT" transform="translate(-185.646 -3)">
    <g id="Gruppe_maskieren_1" data-name="Gruppe maskieren 1" transform="translate(189.061 3)" clip-path="url(#clip-path)">
      <rect id="Rechteck_12" data-name="Rechteck 12" width="419" height="812" transform="translate(-0.101)"/>
      <rect id="Rechteck_13" data-name="Rechteck 13" width="210" height="812" transform="translate(-0.101)" fill="#ffe680"/>
      <path id="Rechteck_2" data-name="Rechteck 2" d="M0,0H230.1a0,0,0,0,1,0,0V13.574a21,21,0,0,1-21,21H21a21,21,0,0,1-21-21V0A0,0,0,0,1,0,0Z" transform="translate(93.667 17.781)"/>
      <path id="Pfad_4" data-name="Pfad 4" d="M0,0A4.44,4.44,0,0,1,4.554,4.317V0Z" transform="translate(89.154 18.532)"/>
      <path id="Pfad_3" data-name="Pfad 3" d="M4.554,0H0V4.317A4.44,4.44,0,0,1,4.554,0Z" transform="translate(323.659 18.532)"/>
      <g id="Rechteck_3" data-name="Rechteck 3" transform="translate(183.262 29.635)" fill="#3a3a3e" stroke="#212121" stroke-width="1">
        <rect width="51.924" height="6.915" rx="3.457" stroke="none"/>
        <rect x="0.5" y="0.5" width="50.924" height="5.915" rx="2.957" fill="none"/>
      </g>
      <g id="Ellipse_1" data-name="Ellipse 1" transform="translate(248.421 25.684)" fill="#3a3a3e" stroke="#212121" stroke-width="1">
        <ellipse cx="7.636" cy="6.915" rx="7.636" ry="6.915" stroke="none"/>
        <ellipse cx="7.636" cy="6.915" rx="7.136" ry="6.415" fill="none"/>
      </g>
      <rect id="Rechteck_6" data-name="Rechteck 6" width="450" height="35" transform="translate(-8.192 418.459) rotate(-20)" fill="#5fb947"/>
      <rect id="Rechteck_7" data-name="Rechteck 7" width="450" height="35" transform="translate(-8.192 455.459) rotate(-20)" fill="#f6b229"/>
      <rect id="Rechteck_8" data-name="Rechteck 8" width="450" height="35" transform="translate(-8.192 492.459) rotate(-20)" fill="#f7811d"/>
      <rect id="Rechteck_9" data-name="Rechteck 9" width="450" height="35" transform="translate(-8.192 529.459) rotate(-20)" fill="#e03a3e"/>
      <rect id="Rechteck_10" data-name="Rechteck 10" width="450" height="35" transform="translate(-8.192 566.459) rotate(-20)" fill="#8f3990"/>
      <rect id="Rechteck_11" data-name="Rechteck 11" width="450" height="35" transform="translate(-8.192 603.459) rotate(-20)" fill="#0188c0"/>
    </g>
    <g id="Rechteck_4" data-name="Rechteck 4" transform="translate(189.061 3)" fill="none" stroke="#000" stroke-width="19">
      <rect width="420.484" height="812" rx="55" stroke="none"/>
      <rect x="9.5" y="9.5" width="401.484" height="793" rx="45.5" fill="none"/>
    </g>
    <g id="Rechteck_25" data-name="Rechteck 25" transform="translate(189.061 3)" fill="none" stroke="#fee57f" stroke-width="5">
      <rect width="420.484" height="812" rx="53" stroke="none"/>
      <rect x="2.5" y="2.5" width="415.484" height="807" rx="50.5" fill="none"/>
    </g>
    <path id="Pfad_5" data-name="Pfad 5" d="M0,0,3.415,1.344V88.263L0,89.607Z" transform="translate(609.545 185.284)" fill="#fceaa3"/>
    <path id="Pfad_6" data-name="Pfad 6" d="M3.415,0,0,.859V56.435l3.415.859Z" transform="translate(185.646 165.581)" fill="#fceaa3"/>
    <path id="Pfad_8" data-name="Pfad 8" d="M3.415,0,0,.385V25.3l3.415.385Z" transform="translate(186.006 112.674)" fill="#fceaa3"/>
    <path id="Pfad_9" data-name="Pfad 9" d="M3.415,0,0,.859V56.435l3.415.859Z" transform="translate(185.646 238.681)" fill="#fceaa3"/>
  </g>
</svg>
