<svg xmlns="http://www.w3.org/2000/svg" xmlns:xlink="http://www.w3.org/1999/xlink" width="474" height="906" viewBox="0 0 474 906">
  <defs>
    <linearGradient id="linear-gradient" x1="1" x2="0" y2="1" gradientUnits="objectBoundingBox">
      <stop offset="0" stop-color="#d2cafb"/>
      <stop offset="1" stop-color="#b1a8df"/>
    </linearGradient>
    <filter id="Rahmen" x="0" y="0" width="474" height="906" filterUnits="userSpaceOnUse">
      <feOffset input="SourceAlpha"/>
      <feGaussianBlur stdDeviation="1.5" result="blur"/>
      <feFlood flood-opacity="0.522"/>
      <feComposite operator="in" in2="blur"/>
    </filter>
    <filter id="Rahmen-2" x="0" y="0" width="474" height="906" filterUnits="userSpaceOnUse">
      <feOffset dx="10" input="SourceAlpha"/>
      <feGaussianBlur stdDeviation="3" result="blur-2"/>
      <feFlood flood-color="#fff" result="color"/>
      <feComposite operator="out" in="SourceGraphic" in2="blur-2"/>
      <feComposite operator="in" in="color"/>
      <feComposite operator="in" in2="SourceGraphic"/>
    </filter>
    <filter id="wholeCamera" x="14.5" y="24.5" width="183" height="183" filterUnits="userSpaceOnUse">
      <feOffset dx="-4" dy="3" input="SourceAlpha"/>
      <feGaussianBlur stdDeviation="3" result="blur-3"/>
      <feFlood flood-opacity="0.161"/>
      <feComposite operator="in" in2="blur-3"/>
      <feComposite in="SourceGraphic"/>
    </filter>
    <radialGradient id="radial-gradient" cx="0.5" cy="0.5" r="0.5" gradientUnits="objectBoundingBox">
      <stop offset="0" stop-color="#f3f3eb"/>
      <stop offset="0.289" stop-color="#eeeee4"/>
      <stop offset="0.519" stop-color="#e0e0d1"/>
      <stop offset="0.732" stop-color="#cecfb9"/>
      <stop offset="0.87" stop-color="#c4c5ab"/>
      <stop offset="1" stop-color="#aeb08d"/>
    </radialGradient>
    <radialGradient id="radial-gradient-2" cx="0.5" cy="0.5" r="0.5" gradientUnits="objectBoundingBox">
      <stop offset="0" stop-color="#dcebfe"/>
      <stop offset="0.065" stop-color="#dcebfe"/>
      <stop offset="0.278" stop-color="#8397b0"/>
      <stop offset="0.447" stop-color="#273a4d"/>
      <stop offset="0.623" stop-color="#273a4d"/>
      <stop offset="0.778" stop-color="#5d6f85"/>
      <stop offset="1" stop-color="#dcebfe"/>
    </radialGradient>
    <linearGradient id="linear-gradient-2" y1="0.5" x2="1" y2="0.5" gradientUnits="objectBoundingBox">
      <stop offset="0" stop-color="#031e37"/>
      <stop offset="1" stop-color="#576878"/>
    </linearGradient>
    <linearGradient id="linear-gradient-3" y1="0.5" x2="1" y2="0.5" gradientUnits="objectBoundingBox">
      <stop offset="0" stop-color="#504b61"/>
      <stop offset="1" stop-color="#100f13"/>
    </linearGradient>
    <radialGradient id="radial-gradient-3" cx="0.5" cy="0.5" r="0.5" gradientUnits="objectBoundingBox">
      <stop offset="0" stop-color="#fff"/>
      <stop offset="1" stop-color="#797979" stop-opacity="0"/>
    </radialGradient>
    <radialGradient id="radial-gradient-4" cx="0.5" cy="0.5" r="0.5" gradientUnits="objectBoundingBox">
      <stop offset="0" stop-color="#fff"/>
      <stop offset="0.205" stop-color="#f3f3f3" stop-opacity="0.914"/>
      <stop offset="1" stop-color="#797979" stop-opacity="0"/>
    </radialGradient>
  </defs>
  <g id="SSB_BACK" data-name="SSB+ BACK" transform="translate(-184.145 1.5)">
    <path id="Pfad_5" data-name="Pfad 5" d="M0,0,3.768,1.483v95.91L0,98.877Z" transform="translate(653.396 204.141)" fill="#d1c9fa"/>
    <path id="Pfad_6" data-name="Pfad 6" d="M3.768,0,0,.948V62.273l3.768.948Z" transform="translate(185.646 182.4)" fill="#d1c9fa"/>
    <path id="Pfad_8" data-name="Pfad 8" d="M3.768,0,0,.425v27.49l3.768.425Z" transform="translate(186.044 124.02)" fill="#d1c9fa"/>
    <path id="Pfad_9" data-name="Pfad 9" d="M3.768,0,0,.948V62.273l3.768.948Z" transform="translate(185.646 263.062)" fill="#d1c9fa"/>
    <rect id="Background" width="465" height="893" rx="55" transform="translate(188.645 3)" fill="url(#linear-gradient)"/>
    <g data-type="innerShadowGroup">
      <g transform="matrix(1, 0, 0, 1, 184.14, -1.5)" filter="url(#Rahmen)">
        <g id="Rahmen-3" data-name="Rahmen" transform="translate(4.5 4.5)" fill="none" stroke="#bcb3eb" stroke-width="7">
          <rect width="465" height="897" rx="55" stroke="none"/>
          <rect x="3.5" y="3.5" width="458" height="890" rx="51.5" fill="none"/>
        </g>
      </g>
      <g transform="matrix(1, 0, 0, 1, 184.14, -1.5)" filter="url(#Rahmen-2)">
        <rect id="Rahmen-4" data-name="Rahmen" width="465" height="897" rx="55" transform="translate(4.5 4.5)" fill="#fff"/>
      </g>
      <g id="Rahmen-5" data-name="Rahmen" transform="translate(188.645 3)" fill="none" stroke="#bcb3eb" stroke-width="7">
        <rect width="465" height="897" rx="55" stroke="none"/>
        <rect x="3.5" y="3.5" width="458" height="890" rx="51.5" fill="none"/>
      </g>
    </g>
    <g transform="matrix(1, 0, 0, 1, 184.14, -1.5)" filter="url(#wholeCamera)">
      <g id="wholeCamera-2" data-name="wholeCamera" transform="translate(27.5 30.5)" fill="#beb5ea" stroke="#b4abe1" stroke-width="2">
        <rect width="165" height="165" rx="41" stroke="none"/>
        <rect x="1" y="1" width="163" height="163" rx="40" fill="none"/>
      </g>
    </g>
    <path id="Logo" d="M8,0H26A20,20,0,0,1,46,20V38a8,8,0,0,1-8,8H20A20,20,0,0,1,0,26V8A8,8,0,0,1,8,0Z" transform="translate(398.645 428)" fill="#a9a0d5"/>
    <g id="Lamp" transform="translate(322.645 50)" stroke="#1a1a1c" stroke-width="1" fill="url(#radial-gradient)">
      <circle cx="16.5" cy="16.5" r="16.5" stroke="none"/>
      <circle cx="16.5" cy="16.5" r="16" fill="none"/>
    </g>
    <g id="Kamera" transform="translate(288.957 106)">
      <g id="Ellipse_12" data-name="Ellipse 12" transform="translate(-0.312)" stroke="#000" stroke-width="0.5" fill="url(#radial-gradient-2)">
        <circle cx="40.5" cy="40.5" r="40.5" stroke="none"/>
        <circle cx="40.5" cy="40.5" r="40.25" fill="none"/>
      </g>
      <circle id="Ellipse_8" data-name="Ellipse 8" cx="34.5" cy="34.5" r="34.5" transform="translate(5.688 6)" fill="#151515"/>
      <circle id="Ellipse_10" data-name="Ellipse 10" cx="13.5" cy="13.5" r="13.5" transform="translate(26.688 27)" fill="#151b24"/>
      <g id="Ellipse_11" data-name="Ellipse 11" transform="translate(30.688 31)" stroke="#1e293a" stroke-width="0.5">
        <circle cx="9.5" cy="9.5" r="9.5" stroke="none"/>
        <circle cx="9.5" cy="9.5" r="9.25" fill="none"/>
      </g>
      <g id="Ellipse_13" data-name="Ellipse 13" transform="translate(7.688 8)" fill="none" stroke="#343434" stroke-width="1">
        <circle cx="32.5" cy="32.5" r="32.5" stroke="none"/>
        <circle cx="32.5" cy="32.5" r="32" fill="none"/>
      </g>
      <path id="Pfad_15" data-name="Pfad 15" d="M10.5.25a8.5,8.5,0,0,1,0,16.52Z" transform="translate(31.573 32)" fill="url(#linear-gradient-2)"/>
      <path id="Pfad_16" data-name="Pfad 16" d="M17,.25a8.5,8.5,0,0,0,0,16.52Z" transform="translate(21.073 32)" fill="url(#linear-gradient-3)"/>
      <circle id="Ellipse_14" data-name="Ellipse 14" cx="1.5" cy="1.5" r="1.5" transform="translate(42.688 42)" fill="url(#radial-gradient-3)"/>
      <circle id="Ellipse_15" data-name="Ellipse 15" cx="1" cy="1" r="1" transform="translate(36.688 37)" fill="url(#radial-gradient-4)"/>
      <circle id="Ellipse_16" data-name="Ellipse 16" cx="1.5" cy="1.5" r="1.5" transform="translate(42.688 42)" fill="url(#radial-gradient-3)"/>
    </g>
    <g id="Kamera-2" data-name="Kamera" transform="translate(218.645 36)">
      <g id="Ellipse_12-2" data-name="Ellipse 12" stroke="#000" stroke-width="0.5" fill="url(#radial-gradient-2)">
        <circle cx="40.5" cy="40.5" r="40.5" stroke="none"/>
        <circle cx="40.5" cy="40.5" r="40.25" fill="none"/>
      </g>
      <circle id="Ellipse_8-2" data-name="Ellipse 8" cx="34.5" cy="34.5" r="34.5" transform="translate(6 6)" fill="#151515"/>
      <circle id="Ellipse_10-2" data-name="Ellipse 10" cx="13.5" cy="13.5" r="13.5" transform="translate(27 27)" fill="#151b24"/>
      <g id="Ellipse_11-2" data-name="Ellipse 11" transform="translate(31 31)" stroke="#1e293a" stroke-width="0.5">
        <circle cx="9.5" cy="9.5" r="9.5" stroke="none"/>
        <circle cx="9.5" cy="9.5" r="9.25" fill="none"/>
      </g>
      <g id="Ellipse_13-2" data-name="Ellipse 13" transform="translate(8 8)" fill="none" stroke="#343434" stroke-width="1">
        <circle cx="32.5" cy="32.5" r="32.5" stroke="none"/>
        <circle cx="32.5" cy="32.5" r="32" fill="none"/>
      </g>
      <path id="Pfad_15-2" data-name="Pfad 15" d="M10.5.25a8.5,8.5,0,0,1,0,16.52Z" transform="translate(32 32)" fill="url(#linear-gradient-2)"/>
      <path id="Pfad_16-2" data-name="Pfad 16" d="M17,.25a8.5,8.5,0,0,0,0,16.52Z" transform="translate(21.5 32)" fill="url(#linear-gradient-3)"/>
      <circle id="Ellipse_14-2" data-name="Ellipse 14" cx="1.5" cy="1.5" r="1.5" transform="translate(43 42)" fill="url(#radial-gradient-3)"/>
      <circle id="Ellipse_15-2" data-name="Ellipse 15" cx="1" cy="1" r="1" transform="translate(37 37)" fill="url(#radial-gradient-4)"/>
      <circle id="Ellipse_16-2" data-name="Ellipse 16" cx="1.5" cy="1.5" r="1.5" transform="translate(43 42)" fill="url(#radial-gradient-3)"/>
    </g>
    <g id="something" transform="translate(246.645 152)" fill="#151b24" stroke="#1a1a1c" stroke-width="1">
      <circle cx="3.5" cy="3.5" r="3.5" stroke="none"/>
      <circle cx="3.5" cy="3.5" r="3" fill="none"/>
    </g>
  </g>
</svg>
