<svg xmlns="http://www.w3.org/2000/svg" xmlns:xlink="http://www.w3.org/1999/xlink" width="418.385" height="844" viewBox="0 0 418.385 844">
  <defs>
    <clipPath id="clip-path">
      <rect id="Rechteck_1" data-name="Rechteck 1" width="409.704" height="844" rx="55" transform="translate(0)" fill="none" stroke="#707070" stroke-width="19"/>
    </clipPath>
    <radialGradient id="radial-gradient" cx="0.421" cy="0.818" r="0.967" gradientTransform="matrix(-0.007, -1, 0.766, -0.005, -0.203, 1.243)" gradientUnits="objectBoundingBox">
      <stop offset="0"/>
      <stop offset="0.526" stop-color="#00382a" stop-opacity="0.918"/>
      <stop offset="1" stop-color="#00d19a" stop-opacity="0.702"/>
    </radialGradient>
    <radialGradient id="radial-gradient-2" cx="0.274" cy="0.951" r="0.961" gradientTransform="matrix(0.013, -1, 1.406, 0.018, -1.067, 1.208)" gradientUnits="objectBoundingBox">
      <stop offset="0"/>
      <stop offset="0.37" stop-color="#00382a" stop-opacity="0"/>
      <stop offset="1" stop-color="#65c100"/>
    </radialGradient>
    <linearGradient id="linear-gradient" x1="0.5" x2="0.5" y2="1" gradientUnits="objectBoundingBox">
      <stop offset="0" stop-color="#01471b" stop-opacity="0.702"/>
      <stop offset="0.514" stop-color="#58b701" stop-opacity="0.431"/>
      <stop offset="0.685" stop-color="#80c501" stop-opacity="0.722"/>
      <stop offset="0.81" stop-color="#8fc902" stop-opacity="0.82"/>
      <stop offset="1" stop-color="#cbdf01" stop-opacity="0.922"/>
    </linearGradient>
    <linearGradient id="linear-gradient-2" x1="0.5" x2="0.5" y2="1" gradientUnits="objectBoundingBox">
      <stop offset="0" stop-color="#01471b" stop-opacity="0.4"/>
      <stop offset="1" stop-color="#009f1f" stop-opacity="0.6"/>
    </linearGradient>
  </defs>
  <g id="SSC_FRONT" data-name="SSC FRONT" transform="translate(-185.646 -3)">
    <g id="Gruppe_1" data-name="Gruppe 1" transform="translate(188.989 3)" clip-path="url(#clip-path)">
      <rect id="Rechteck_12" data-name="Rechteck 12" width="409.762" height="844" transform="translate(-0.029)"/>
      <path id="Pfad_13" data-name="Pfad 13" d="M-5.746,117.046S69.969,0,167.969,0s228.09,166.185,228.09,166.185L392,208H0Z" transform="translate(11.042 616)" fill="url(#radial-gradient)"/>
      <path id="Pfad_14" data-name="Pfad 14" d="M-5.746,117.046S-44.307,26.9,53.693,26.9,410.044,149.08,410.044,149.08L392,208H0Z" transform="translate(11.042 616)" fill="url(#radial-gradient-2)"/>
      <path id="Pfad_11" data-name="Pfad 11" d="M.033,0H386.748V600.128S239.467,730.812,173.829,689.781c-64.939-40.6-27.562-211.272-65.574-293.855C70.215,306.073.033,221.571.033,221.571Z" transform="translate(16.293 13)" fill="url(#linear-gradient)"/>
      <path id="Pfad_12" data-name="Pfad 12" d="M.033,0H386.748V423.149S286.576,459.138,244.43,454.885c-41.012-4.914-56.249-73.513-102.057-98.844C76.351,319.532-5.044,351.127-5.044,351.127Z" transform="translate(16.293 13)" fill="url(#linear-gradient-2)"/>
      <path id="Pfad_10" data-name="Pfad 10" d="M0,0H337V244s-35.914,12.629-84.014-9.766S205.834,133.183,150.362,88.518,68.106,67.509,31.579,47.412,0,0,0,0Z" transform="translate(66.042 13)" fill="rgba(1,30,16,0.7)"/>
      <path id="Rechteck_2" data-name="Rechteck 2" d="M0,0H225.287a0,0,0,0,1,0,0V14.937a21,21,0,0,1-21,21H21a21,21,0,0,1-21-21V0A0,0,0,0,1,0,0Z" transform="translate(91.71 17.54)"/>
      <g id="Rechteck_3" data-name="Rechteck 3" transform="translate(179.432 29.861)" fill="#3a3a3e" stroke="#212121" stroke-width="1">
        <rect width="50.839" height="7.187" rx="3.594" stroke="none"/>
        <rect x="0.5" y="0.5" width="49.839" height="6.187" rx="3.094" fill="none"/>
      </g>
      <g id="Ellipse_1" data-name="Ellipse 1" transform="translate(243.23 26.696)" fill="#3a3a3e" stroke="#212121" stroke-width="1">
        <ellipse cx="7.476" cy="7.187" rx="7.476" ry="7.187" stroke="none"/>
        <ellipse cx="7.476" cy="7.187" rx="6.976" ry="6.687" fill="none"/>
      </g>
      <path id="Pfad_3" data-name="Pfad 3" d="M4.458,0H0V4.488A4.473,4.473,0,0,1,4.458,0Z" transform="translate(316.896 17.378)"/>
      <path id="Pfad_4" data-name="Pfad 4" d="M0,0A4.473,4.473,0,0,1,4.458,4.488V0Z" transform="translate(87.252 19)"/>
    </g>
    <g id="Rechteck_4" data-name="Rechteck 4" transform="translate(188.989 3)" fill="none" stroke="#000" stroke-width="19">
      <rect width="411.697" height="844" rx="55" stroke="none"/>
      <rect x="9.5" y="9.5" width="392.697" height="825" rx="45.5" fill="none"/>
    </g>
    <g id="Rahmen" transform="translate(188.251 3)" fill="none" stroke="#9dc9b7" stroke-width="5">
      <rect width="413" height="844" rx="53" stroke="none"/>
      <rect x="2.5" y="2.5" width="408" height="839" rx="50.5" fill="none"/>
    </g>
    <path id="Pfad_5" data-name="Pfad 5" d="M0,0,3.344,1.4V91.741L0,93.138Z" transform="translate(600.687 192.468)" fill="#a3d2bf"/>
    <path id="Pfad_6" data-name="Pfad 6" d="M3.344,0,0,.893V58.659l3.344.893Z" transform="translate(185.646 171.988)" fill="#a3d2bf"/>
    <path id="Pfad_8" data-name="Pfad 8" d="M3.344,0,0,.4V26.3l3.344.4Z" transform="translate(185.999 116.996)" fill="#a3d2bf"/>
    <path id="Pfad_9" data-name="Pfad 9" d="M3.344,0,0,.893V58.659l3.344.893Z" transform="translate(185.646 247.969)" fill="#a3d2bf"/>
  </g>
</svg>
