<svg xmlns="http://www.w3.org/2000/svg" xmlns:xlink="http://www.w3.org/1999/xlink" width="459.034" height="926" viewBox="0 0 459.034 926">
  <defs>
    <clipPath id="clip-path">
      <rect id="Rechteck_1" data-name="Rechteck 1" width="449.509" height="926" rx="55" transform="translate(0)" fill="none" stroke="#707070" stroke-width="19"/>
    </clipPath>
    <radialGradient id="radial-gradient" cx="0.128" cy="1.024" r="1.476" gradientTransform="translate(0 0.453) scale(1 0.558)" gradientUnits="objectBoundingBox">
      <stop offset="0" stop-color="#46224c"/>
      <stop offset="1" stop-color="#d671c2" stop-opacity="0.702"/>
    </radialGradient>
    <linearGradient id="linear-gradient" x1="0.5" x2="0.5" y2="1" gradientUnits="objectBoundingBox">
      <stop offset="0" stop-color="#ec594c" stop-opacity="0.702"/>
      <stop offset="1" stop-color="#f9dd4d" stop-opacity="0.902"/>
    </linearGradient>
    <linearGradient id="linear-gradient-2" x1="0.5" x2="0" y2="0.77" gradientUnits="objectBoundingBox">
      <stop offset="0" stop-color="#eb702a" stop-opacity="0.702"/>
      <stop offset="1" stop-color="#f4cc00" stop-opacity="0.702"/>
    </linearGradient>
  </defs>
  <g id="SSC_FRONT" data-name="SSC+ FRONT" transform="translate(-185.646 -3)">
    <g id="Gruppe_1" data-name="Gruppe 1" transform="translate(189.314 3)" clip-path="url(#clip-path)">
      <rect id="Rechteck_12" data-name="Rechteck 12" width="449.573" height="926" transform="translate(-0.032)"/>
      <path id="Pfad_13" data-name="Pfad 13" d="M-5.746,128.418S77.325,0,184.846,0,435.1,182.33,435.1,182.33l-4.453,45.878H.558Z" transform="translate(11.556 680.848)" fill="#e35a6c"/>
      <path id="Pfad_14" data-name="Pfad 14" d="M-5.019,125.8S-47.327,26.9,60.195,26.9,451.167,160.951,451.167,160.951L431.37,225.6H1.285Z" transform="translate(10.829 683.461)" fill="url(#radial-gradient)"/>
      <path id="Pfad_11" data-name="Pfad 11" d="M.033,0H424.32V658.435S262.729,801.815,190.714,756.8c-71.249-44.539-30.24-231.8-71.945-322.4C77.034,335.81.033,243.1.033,243.1Z" transform="translate(17.88 14.263)" fill="url(#linear-gradient)"/>
      <path id="Pfad_12" data-name="Pfad 12" d="M.526,0H424.813V464.261s-109.9,39.485-156.146,34.82c-45-5.391-61.714-80.656-111.973-108.448C84.259,350.577-5.044,385.241-5.044,385.241Z" transform="translate(17.386 14.263)" fill="url(#linear-gradient-2)"/>
      <path id="Pfad_10" data-name="Pfad 10" d="M.022,0H369.764V267.706s-39.4,13.856-92.176-10.715S225.854,146.123,164.993,97.118s-90.248-23.05-130.324-45.1S.022,0,.022,0Z" transform="translate(72.436 14.263)" fill="rgba(212,62,25,0.7)"/>
      <path id="Rechteck_2" data-name="Rechteck 2" d="M0,0H247.175a0,0,0,0,1,0,0V18.428a21,21,0,0,1-21,21H21a21,21,0,0,1-21-21V0A0,0,0,0,1,0,0Z" transform="translate(100.62 18.244)"/>
      <g id="Rechteck_3" data-name="Rechteck 3" transform="translate(196.865 31.762)" fill="#3a3a3e" stroke="#212121" stroke-width="1">
        <rect width="55.778" height="7.886" rx="3.943" stroke="none"/>
        <rect x="0.5" y="0.5" width="54.778" height="6.886" rx="3.443" fill="none"/>
      </g>
      <g id="Ellipse_1" data-name="Ellipse 1" transform="translate(266.862 28.29)" fill="#3a3a3e" stroke="#212121" stroke-width="1">
        <ellipse cx="8.203" cy="7.886" rx="8.203" ry="7.886" stroke="none"/>
        <ellipse cx="8.203" cy="7.886" rx="7.703" ry="7.386" fill="none"/>
      </g>
      <path id="Pfad_3" data-name="Pfad 3" d="M4.892,0H0V4.924A4.908,4.908,0,0,1,4.892,0Z" transform="translate(347.685 18.95)"/>
      <path id="Pfad_4" data-name="Pfad 4" d="M0,0A4.908,4.908,0,0,1,4.892,4.924V0Z" transform="translate(95.729 18.95)"/>
    </g>
    <g id="Rechteck_4" data-name="Rechteck 4" transform="translate(189.619 3)" fill="none" stroke="#000" stroke-width="19">
      <rect width="451.696" height="926" rx="55" stroke="none"/>
      <rect x="9.5" y="9.5" width="432.696" height="907" rx="45.5" fill="none"/>
    </g>
    <g id="Rahmen" transform="translate(189.314 3)" fill="none" stroke="#dc8123" stroke-width="5">
      <rect width="452.005" height="926" rx="53" stroke="none"/>
      <rect x="2.5" y="2.5" width="447.005" height="921" rx="50.5" fill="none"/>
    </g>
    <path id="Pfad_5" data-name="Pfad 5" d="M0,0,3.669,1.533v99.122L0,102.187Z" transform="translate(641.011 210.876)" fill="#de8a20"/>
    <path id="Pfad_6" data-name="Pfad 6" d="M3.669,0,0,.98V64.358l3.669.98Z" transform="translate(185.646 188.407)" fill="#de8a20"/>
    <path id="Pfad_8" data-name="Pfad 8" d="M3.669,0,0,.439V28.85l3.669.439Z" transform="translate(186.033 128.072)" fill="#de8a20"/>
    <path id="Pfad_9" data-name="Pfad 9" d="M3.669,0,0,.98V64.358l3.669.98Z" transform="translate(185.646 271.769)" fill="#de8a20"/>
  </g>
</svg>
