<svg id="visual" viewBox="0 0 1920 200" width="1920" height="200" xmlns="http://www.w3.org/2000/svg" xmlns:xlink="http://www.w3.org/1999/xlink" version="1.1"><path d="M0 165L53.3 140.3C106.7 115.7 213.3 66.3 320 49.8C426.7 33.3 533.3 49.7 640 74.8C746.7 100 853.3 134 960 134.2C1066.7 134.3 1173.3 100.7 1280 79C1386.7 57.3 1493.3 47.7 1600 63C1706.7 78.3 1813.3 118.7 1866.7 138.8L1920 159L1920 0L1866.7 0C1813.3 0 1706.7 0 1600 0C1493.3 0 1386.7 0 1280 0C1173.3 0 1066.7 0 960 0C853.3 0 746.7 0 640 0C533.3 0 426.7 0 320 0C213.3 0 106.7 0 53.3 0L0 0Z" fill="#3E5663" stroke-linecap="round" stroke-linejoin="miter"></path></svg>